<svg id="my-svg" width="100%" xmlns="http://www.w3.org/2000/svg" xmlns:xlink="http://www.w3.org/1999/xlink" class="flowchart" style="max-width: 853.543px; background-color: transparent;" viewBox="0 0 853.54296875 2793.90625" role="graphics-document document" aria-roledescription="flowchart-v2"><style>#my-svg{font-family:"trebuchet ms",verdana,arial,sans-serif;font-size:16px;fill:#333;}@keyframes edge-animation-frame{from{stroke-dashoffset:0;}}@keyframes dash{to{stroke-dashoffset:0;}}#my-svg .edge-animation-slow{stroke-dasharray:9,5!important;stroke-dashoffset:900;animation:dash 50s linear infinite;stroke-linecap:round;}#my-svg .edge-animation-fast{stroke-dasharray:9,5!important;stroke-dashoffset:900;animation:dash 20s linear infinite;stroke-linecap:round;}#my-svg .error-icon{fill:#552222;}#my-svg .error-text{fill:#552222;stroke:#552222;}#my-svg .edge-thickness-normal{stroke-width:1px;}#my-svg .edge-thickness-thick{stroke-width:3.5px;}#my-svg .edge-pattern-solid{stroke-dasharray:0;}#my-svg .edge-thickness-invisible{stroke-width:0;fill:none;}#my-svg .edge-pattern-dashed{stroke-dasharray:3;}#my-svg .edge-pattern-dotted{stroke-dasharray:2;}#my-svg .marker{fill:#333333;stroke:#333333;}#my-svg .marker.cross{stroke:#333333;}#my-svg svg{font-family:"trebuchet ms",verdana,arial,sans-serif;font-size:16px;}#my-svg p{margin:0;}#my-svg .label{font-family:"trebuchet ms",verdana,arial,sans-serif;color:#333;}#my-svg .cluster-label text{fill:#333;}#my-svg .cluster-label span{color:#333;}#my-svg .cluster-label span p{background-color:transparent;}#my-svg .label text,#my-svg span{fill:#333;color:#333;}#my-svg .node rect,#my-svg .node circle,#my-svg .node ellipse,#my-svg .node polygon,#my-svg .node path{fill:#ECECFF;stroke:#9370DB;stroke-width:1px;}#my-svg .rough-node .label text,#my-svg .node .label text,#my-svg .image-shape .label,#my-svg .icon-shape .label{text-anchor:middle;}#my-svg .node .katex path{fill:#000;stroke:#000;stroke-width:1px;}#my-svg .rough-node .label,#my-svg .node .label,#my-svg .image-shape .label,#my-svg .icon-shape .label{text-align:center;}#my-svg .node.clickable{cursor:pointer;}#my-svg .root .anchor path{fill:#333333!important;stroke-width:0;stroke:#333333;}#my-svg .arrowheadPath{fill:#333333;}#my-svg .edgePath .path{stroke:#333333;stroke-width:1px;}#my-svg .flowchart-link{stroke:#333333;fill:none;}#my-svg .edgeLabel{background-color:rgba(232,232,232, 0.8);text-align:center;}#my-svg .edgeLabel p{background-color:rgba(232,232,232, 0.8);}#my-svg .edgeLabel rect{opacity:0.5;background-color:rgba(232,232,232, 0.8);fill:rgba(232,232,232, 0.8);}#my-svg .labelBkg{background-color:rgba(232, 232, 232, 0.5);}#my-svg .cluster rect{fill:#ffffde;stroke:#aaaa33;stroke-width:1px;}#my-svg .cluster text{fill:#333;}#my-svg .cluster span{color:#333;}#my-svg div.mermaidTooltip{position:absolute;text-align:center;max-width:200px;padding:2px;font-family:"trebuchet ms",verdana,arial,sans-serif;font-size:12px;background:hsl(80, 100%, 96.2745098039%);border:1px solid #aaaa33;border-radius:2px;pointer-events:none;z-index:100;}#my-svg .flowchartTitleText{text-anchor:middle;font-size:18px;fill:#333;}#my-svg rect.text{fill:none;stroke-width:0;}#my-svg .icon-shape,#my-svg .image-shape{background-color:rgba(232,232,232, 0.8);text-align:center;}#my-svg .icon-shape p,#my-svg .image-shape p{background-color:rgba(232,232,232, 0.8);padding:2px;}#my-svg .icon-shape .label rect,#my-svg .image-shape .label rect{opacity:0.5;background-color:rgba(232,232,232, 0.8);fill:rgba(232,232,232, 0.8);}#my-svg .label-icon{display:inline-block;height:1em;overflow:visible;vertical-align:-0.125em;}#my-svg .node .label-icon path{fill:currentColor;stroke:revert;stroke-width:revert;}#my-svg .node .neo-node{stroke:#9370DB;}#my-svg [data-look="neo"].node rect,#my-svg [data-look="neo"].cluster rect,#my-svg [data-look="neo"].node polygon{stroke:#9370DB;filter:drop-shadow(1px 2px 2px rgba(185, 185, 185, 1));}#my-svg [data-look="neo"].swimlane.cluster rect{filter:none;}#my-svg [data-look="neo"].node path{stroke:#9370DB;stroke-width:1px;}#my-svg [data-look="neo"].node .outer-path{filter:drop-shadow(1px 2px 2px rgba(185, 185, 185, 1));}#my-svg [data-look="neo"].node .neo-line path{stroke:#9370DB;filter:none;}#my-svg [data-look="neo"].node circle{stroke:#9370DB;filter:drop-shadow(1px 2px 2px rgba(185, 185, 185, 1));}#my-svg [data-look="neo"].node circle .state-start{fill:#000000;}#my-svg [data-look="neo"].icon-shape .icon{fill:#9370DB;filter:drop-shadow(1px 2px 2px rgba(185, 185, 185, 1));}#my-svg [data-look="neo"].icon-shape .icon-neo path{stroke:#9370DB;filter:drop-shadow(1px 2px 2px rgba(185, 185, 185, 1));}#my-svg :root{--mermaid-font-family:"trebuchet ms",verdana,arial,sans-serif;}</style><g><marker id="my-svg_flowchart-v2-pointEnd" class="marker flowchart-v2" viewBox="0 0 10 10" refX="5" refY="5" markerUnits="userSpaceOnUse" markerWidth="8" markerHeight="8" orient="auto"><path d="M 0 0 L 10 5 L 0 10 z" class="arrowMarkerPath" style="stroke-width: 1; stroke-dasharray: 1, 0;"/></marker><marker id="my-svg_flowchart-v2-pointStart" class="marker flowchart-v2" viewBox="0 0 10 10" refX="4.5" refY="5" markerUnits="userSpaceOnUse" markerWidth="8" markerHeight="8" orient="auto"><path d="M 0 5 L 10 10 L 10 0 z" class="arrowMarkerPath" style="stroke-width: 1; stroke-dasharray: 1, 0;"/></marker><marker id="my-svg_flowchart-v2-pointEnd-margin" class="marker flowchart-v2" viewBox="0 0 11.5 14" refX="11.5" refY="7" markerUnits="userSpaceOnUse" markerWidth="10.5" markerHeight="14" orient="auto"><path d="M 0 0 L 11.5 7 L 0 14 z" class="arrowMarkerPath" style="stroke-width: 0; stroke-dasharray: 1, 0;"/></marker><marker id="my-svg_flowchart-v2-pointStart-margin" class="marker flowchart-v2" viewBox="0 0 11.5 14" refX="1" refY="7" markerUnits="userSpaceOnUse" markerWidth="11.5" markerHeight="14" orient="auto"><polygon points="0,7 11.5,14 11.5,0" class="arrowMarkerPath" style="stroke-width: 0; stroke-dasharray: 1, 0;"/></marker><marker id="my-svg_flowchart-v2-circleEnd" class="marker flowchart-v2" viewBox="0 0 10 10" refX="11" refY="5" markerUnits="userSpaceOnUse" markerWidth="11" markerHeight="11" orient="auto"><circle cx="5" cy="5" r="5" class="arrowMarkerPath" style="stroke-width: 1; stroke-dasharray: 1, 0;"/></marker><marker id="my-svg_flowchart-v2-circleStart" class="marker flowchart-v2" viewBox="0 0 10 10" refX="-1" refY="5" markerUnits="userSpaceOnUse" markerWidth="11" markerHeight="11" orient="auto"><circle cx="5" cy="5" r="5" class="arrowMarkerPath" style="stroke-width: 1; stroke-dasharray: 1, 0;"/></marker><marker id="my-svg_flowchart-v2-circleEnd-margin" class="marker flowchart-v2" viewBox="0 0 10 10" refY="5" refX="12.25" markerUnits="userSpaceOnUse" markerWidth="14" markerHeight="14" orient="auto"><circle cx="5" cy="5" r="5" class="arrowMarkerPath" style="stroke-width: 0; stroke-dasharray: 1, 0;"/></marker><marker id="my-svg_flowchart-v2-circleStart-margin" class="marker flowchart-v2" viewBox="0 0 10 10" refX="-2" refY="5" markerUnits="userSpaceOnUse" markerWidth="14" markerHeight="14" orient="auto"><circle cx="5" cy="5" r="5" class="arrowMarkerPath" style="stroke-width: 0; stroke-dasharray: 1, 0;"/></marker><marker id="my-svg_flowchart-v2-crossEnd" class="marker cross flowchart-v2" viewBox="0 0 11 11" refX="12" refY="5.2" markerUnits="userSpaceOnUse" markerWidth="11" markerHeight="11" orient="auto"><path d="M 1,1 l 9,9 M 10,1 l -9,9" class="arrowMarkerPath" style="stroke-width: 2; stroke-dasharray: 1, 0;"/></marker><marker id="my-svg_flowchart-v2-crossStart" class="marker cross flowchart-v2" viewBox="0 0 11 11" refX="-1" refY="5.2" markerUnits="userSpaceOnUse" markerWidth="11" markerHeight="11" orient="auto"><path d="M 1,1 l 9,9 M 10,1 l -9,9" class="arrowMarkerPath" style="stroke-width: 2; stroke-dasharray: 1, 0;"/></marker><marker id="my-svg_flowchart-v2-crossEnd-margin" class="marker cross flowchart-v2" viewBox="0 0 15 15" refX="17.7" refY="7.5" markerUnits="userSpaceOnUse" markerWidth="12" markerHeight="12" orient="auto"><path d="M 1,1 L 14,14 M 1,14 L 14,1" class="arrowMarkerPath" style="stroke-width: 2.5;"/></marker><marker id="my-svg_flowchart-v2-crossStart-margin" class="marker cross flowchart-v2" viewBox="0 0 15 15" refX="-3.5" refY="7.5" markerUnits="userSpaceOnUse" markerWidth="12" markerHeight="12" orient="auto"><path d="M 1,1 L 14,14 M 1,14 L 14,1" class="arrowMarkerPath" style="stroke-width: 2.5; stroke-dasharray: 1, 0;"/></marker><g class="root"><g class="clusters"/><g class="edgePaths"><path d="M316.621,47.5L316.538,51.583C316.454,55.667,316.288,63.833,316.204,71.417C316.121,79,316.121,86,316.121,89.5L316.121,93" id="my-svg-L_START_EMBED_0" class="edge-thickness-normal edge-pattern-solid edge-thickness-normal edge-pattern-solid flowchart-link" style=";" data-edge="true" data-et="edge" data-id="L_START_EMBED_0" data-points="W3sieCI6MzE2LjYyMTA5Mzc1LCJ5Ijo0Ny40OTk5OTk5OTk5OTk5ODZ9LHsieCI6MzE2LjEyMTA5Mzc1LCJ5Ijo3Mn0seyJ4IjozMTYuMTIxMDkzNzUsInkiOjk3fV0=" data-look="classic" marker-end="url(#my-svg_flowchart-v2-pointEnd)"/><path d="M423.157,199L431.901,203.167C440.646,207.333,458.136,215.667,466.88,223.333C475.625,231,475.625,238,475.625,241.5L475.625,245" id="my-svg-L_EMBED_CLASSIFY_0" class="edge-thickness-normal edge-pattern-solid edge-thickness-normal edge-pattern-solid flowchart-link" style=";" data-edge="true" data-et="edge" data-id="L_EMBED_CLASSIFY_0" data-points="W3sieCI6NDIzLjE1NjYwOTc4NjE4NDIsInkiOjE5OX0seyJ4Ijo0NzUuNjI1LCJ5IjoyMjR9LHsieCI6NDc1LjYyNSwieSI6MjQ5fV0=" data-look="classic" marker-end="url(#my-svg_flowchart-v2-pointEnd)"/><path d="M206.485,199L197.528,203.167C188.571,207.333,170.657,215.667,161.699,234.5C152.742,253.333,152.742,282.667,152.742,312C152.742,341.333,152.742,370.667,152.742,397.93C152.742,425.193,152.742,450.385,152.742,477.578C152.742,504.771,152.742,533.964,152.742,563.227C152.742,592.49,152.742,621.823,152.742,649.156C152.742,676.49,152.742,701.823,152.742,725.156C152.742,748.49,152.742,769.823,152.742,791.156C152.742,812.49,152.742,833.823,152.742,851.035C152.742,868.247,152.742,881.339,152.742,887.884L152.742,894.43" id="my-svg-L_EMBED_SCORE_EMOTION_0" class="edge-thickness-normal edge-pattern-solid edge-thickness-normal edge-pattern-solid flowchart-link" style=";" data-edge="true" data-et="edge" data-id="L_EMBED_SCORE_EMOTION_0" data-points="W3sieCI6MjA2LjQ4NTI0ODc2NjQ0NzM3LCJ5IjoxOTl9LHsieCI6MTUyLjc0MjE4NzUsInkiOjIyNH0seyJ4IjoxNTIuNzQyMTg3NSwieSI6MzEyfSx7IngiOjE1Mi43NDIxODc1LCJ5Ijo0MDB9LHsieCI6MTUyLjc0MjE4NzUsInkiOjQ3NS41NzgxMjV9LHsieCI6MTUyLjc0MjE4NzUsInkiOjU2My4xNTYyNX0seyJ4IjoxNTIuNzQyMTg3NSwieSI6NjUxLjE1NjI1fSx7IngiOjE1Mi43NDIxODc1LCJ5Ijo3MjcuMTU2MjV9LHsieCI6MTUyLjc0MjE4NzUsInkiOjc5MS4xNTYyNX0seyJ4IjoxNTIuNzQyMTg3NSwieSI6ODU1LjE1NjI1fSx7IngiOjE1Mi43NDIxODc1LCJ5Ijo4OTguNDI5Njg3NX1d" data-look="classic" marker-end="url(#my-svg_flowchart-v2-pointEnd)"/><path d="M475.625,375L475.625,379.167C475.625,383.333,475.625,391.667,475.625,399.333C475.625,407,475.625,414,475.625,417.5L475.625,421" id="my-svg-L_CLASSIFY_LABEL_0" class="edge-thickness-normal edge-pattern-solid edge-thickness-normal edge-pattern-solid flowchart-link" style=";" data-edge="true" data-et="edge" data-id="L_CLASSIFY_LABEL_0" data-points="W3sieCI6NDc1LjYyNSwieSI6Mzc1fSx7IngiOjQ3NS42MjUsInkiOjQwMH0seyJ4Ijo0NzUuNjI1LCJ5Ijo0MjV9XQ==" data-look="classic" marker-end="url(#my-svg_flowchart-v2-pointEnd)"/><path d="M512.678,489.104L546.489,501.446C580.299,513.788,647.921,538.472,681.732,556.314C715.543,574.156,715.543,585.156,715.543,590.656L715.543,596.156" id="my-svg-L_LABEL_BACKEND_0" class="edge-thickness-normal edge-pattern-solid edge-thickness-normal edge-pattern-solid flowchart-link" style=";" data-edge="true" data-et="edge" data-id="L_LABEL_BACKEND_0" data-points="W3sieCI6NTEyLjY3NzY1ODc3OTAyODksInkiOjQ4OS4xMDM1OTEyMjA5NzExN30seyJ4Ijo3MTUuNTQyOTY4NzUsInkiOjU2My4xNTYyNX0seyJ4Ijo3MTUuNTQyOTY4NzUsInkiOjYwMC4xNTYyNX1d" data-look="classic" marker-end="url(#my-svg_flowchart-v2-pointEnd)"/><path d="M452.098,502.629L443.325,512.717C434.551,522.805,417.004,542.981,408.231,558.568C399.457,574.156,399.457,585.156,399.457,590.656L399.457,596.156" id="my-svg-L_LABEL_BACKEND2_0" class="edge-thickness-normal edge-pattern-solid edge-thickness-normal edge-pattern-solid flowchart-link" style=";" data-edge="true" data-et="edge" data-id="L_LABEL_BACKEND2_0" data-points="W3sieCI6NDUyLjA5ODEzMDA5OTExOTcsInkiOjUwMi42MjkzODAwOTkxMTk3fSx7IngiOjM5OS40NTcwMzEyNSwieSI6NTYzLjE1NjI1fSx7IngiOjM5OS40NTcwMzEyNSwieSI6NjAwLjE1NjI1fV0=" data-look="classic" marker-end="url(#my-svg_flowchart-v2-pointEnd)"/><path d="M152.742,1048.43L152.742,1057.642C152.742,1066.854,152.742,1085.279,152.742,1099.991C152.742,1114.703,152.742,1125.703,152.742,1131.203L152.742,1136.703" id="my-svg-L_SCORE_EMOTION_UPDATE_EMA_0" class="edge-thickness-normal edge-pattern-solid edge-thickness-normal edge-pattern-solid flowchart-link" style=";" data-edge="true" data-et="edge" data-id="L_SCORE_EMOTION_UPDATE_EMA_0" data-points="W3sieCI6MTUyLjc0MjE4NzUsInkiOjEwNDguNDI5Njg3NX0seyJ4IjoxNTIuNzQyMTg3NSwieSI6MTEwMy43MDMxMjV9LHsieCI6MTUyLjc0MjE4NzUsInkiOjExNDAuNzAzMTI1fV0=" data-look="classic" marker-end="url(#my-svg_flowchart-v2-pointEnd)"/><path d="M152.742,1290.703L152.742,1294.87C152.742,1299.036,152.742,1307.37,152.742,1317.036C152.742,1326.703,152.742,1337.703,152.742,1343.203L152.742,1348.703" id="my-svg-L_UPDATE_EMA_EMOTION_STATE_0" class="edge-thickness-normal edge-pattern-solid edge-thickness-normal edge-pattern-solid flowchart-link" style=";" data-edge="true" data-et="edge" data-id="L_UPDATE_EMA_EMOTION_STATE_0" data-points="W3sieCI6MTUyLjc0MjE4NzUsInkiOjEyOTAuNzAzMTI1fSx7IngiOjE1Mi43NDIxODc1LCJ5IjoxMzE1LjcwMzEyNX0seyJ4IjoxNTIuNzQyMTg3NSwieSI6MTM1Mi43MDMxMjV9XQ==" data-look="classic" marker-end="url(#my-svg_flowchart-v2-pointEnd)"/><path d="M715.543,702.156L715.543,706.323C715.543,710.49,715.543,718.823,700.567,726.984C685.592,735.146,655.641,743.136,640.665,747.13L625.69,751.125" id="my-svg-L_BACKEND_APPEND_SESSION_0" class="edge-thickness-normal edge-pattern-solid edge-thickness-normal edge-pattern-solid flowchart-link" style=";" data-edge="true" data-et="edge" data-id="L_BACKEND_APPEND_SESSION_0" data-points="W3sieCI6NzE1LjU0Mjk2ODc1LCJ5Ijo3MDIuMTU2MjV9LHsieCI6NzE1LjU0Mjk2ODc1LCJ5Ijo3MjcuMTU2MjV9LHsieCI6NjIxLjgyNTAxMjIwNzAzMTIsInkiOjc1Mi4xNTYyNX1d" data-look="classic" marker-end="url(#my-svg_flowchart-v2-pointEnd)"/><path d="M399.457,702.156L399.457,706.323C399.457,710.49,399.457,718.823,403.905,726.727C408.354,734.632,417.251,742.107,421.699,745.845L426.148,749.583" id="my-svg-L_BACKEND2_APPEND_SESSION_0" class="edge-thickness-normal edge-pattern-solid edge-thickness-normal edge-pattern-solid flowchart-link" style=";" data-edge="true" data-et="edge" data-id="L_BACKEND2_APPEND_SESSION_0" data-points="W3sieCI6Mzk5LjQ1NzAzMTI1LCJ5Ijo3MDIuMTU2MjV9LHsieCI6Mzk5LjQ1NzAzMTI1LCJ5Ijo3MjcuMTU2MjV9LHsieCI6NDI5LjIxMDE0NDA0Mjk2ODc1LCJ5Ijo3NTIuMTU2MjV9XQ==" data-look="classic" marker-end="url(#my-svg_flowchart-v2-pointEnd)"/><path d="M475.625,830.156L475.625,834.323C475.625,838.49,475.625,846.823,475.625,854.49C475.625,862.156,475.625,869.156,475.625,872.656L475.625,876.156" id="my-svg-L_APPEND_SESSION_FEW_SHOT_0" class="edge-thickness-normal edge-pattern-solid edge-thickness-normal edge-pattern-solid flowchart-link" style=";" data-edge="true" data-et="edge" data-id="L_APPEND_SESSION_FEW_SHOT_0" data-points="W3sieCI6NDc1LjYyNSwieSI6ODMwLjE1NjI1fSx7IngiOjQ3NS42MjUsInkiOjg1NS4xNTYyNX0seyJ4Ijo0NzUuNjI1LCJ5Ijo4ODAuMTU2MjV9XQ==" data-look="classic" marker-end="url(#my-svg_flowchart-v2-pointEnd)"/><path d="M472.931,1064.009L472.734,1070.625C472.537,1077.24,472.144,1090.472,471.947,1108.587C471.75,1126.703,471.75,1149.703,471.75,1161.203L471.75,1172.703" id="my-svg-L_FEW_SHOT_INJECT_0" class="edge-thickness-normal edge-pattern-solid edge-thickness-normal edge-pattern-solid flowchart-link" style=";" data-edge="true" data-et="edge" data-id="L_FEW_SHOT_INJECT_0" data-points="W3sieCI6NDcyLjkzMDcxMTY2NTAxNjYsInkiOjEwNjQuMDA4ODM2NjY1MDE2Nn0seyJ4Ijo0NzEuNzUsInkiOjExMDMuNzAzMTI1fSx7IngiOjQ3MS43NSwieSI6MTE3Ni43MDMxMjV9XQ==" data-look="classic" marker-end="url(#my-svg_flowchart-v2-pointEnd)"/><path d="M527.647,1014.681L546.358,1029.518C565.07,1044.355,602.492,1074.029,621.203,1107.533C639.914,1141.036,639.914,1178.37,639.914,1213.703C639.914,1249.036,639.914,1282.37,631.512,1302.923C623.11,1323.477,606.306,1331.25,597.904,1335.137L589.502,1339.024" id="my-svg-L_FEW_SHOT_COMPUTE_SLOT_0" class="edge-thickness-normal edge-pattern-solid edge-thickness-normal edge-pattern-solid flowchart-link" style=";" data-edge="true" data-et="edge" data-id="L_FEW_SHOT_COMPUTE_SLOT_0" data-points="W3sieCI6NTI3LjY0NzI1NTM4OTAxNzEsInkiOjEwMTQuNjgwODY5NjEwOTgyOX0seyJ4Ijo2MzkuOTE0MDYyNSwieSI6MTEwMy43MDMxMjV9LHsieCI6NjM5LjkxNDA2MjUsInkiOjEyMTUuNzAzMTI1fSx7IngiOjYzOS45MTQwNjI1LCJ5IjoxMzE1LjcwMzEyNX0seyJ4Ijo1ODUuODcxNjA3NzMwMjYzMSwieSI6MTM0MC43MDMxMjV9XQ==" data-look="classic" marker-end="url(#my-svg_flowchart-v2-pointEnd)"/><path d="M471.75,1254.703L471.75,1264.87C471.75,1275.036,471.75,1295.37,471.928,1309.037C472.107,1322.705,472.464,1329.707,472.642,1333.207L472.821,1336.708" id="my-svg-L_INJECT_COMPUTE_SLOT_0" class="edge-thickness-normal edge-pattern-solid edge-thickness-normal edge-pattern-solid flowchart-link" style=";" data-edge="true" data-et="edge" data-id="L_INJECT_COMPUTE_SLOT_0" data-points="W3sieCI6NDcxLjc1LCJ5IjoxMjU0LjcwMzEyNX0seyJ4Ijo0NzEuNzUsInkiOjEzMTUuNzAzMTI1fSx7IngiOjQ3My4wMjQ2NzEwNTI2MzE1NiwieSI6MTM0MC43MDMxMjV9XQ==" data-look="classic" marker-end="url(#my-svg_flowchart-v2-pointEnd)"/><path d="M475.625,1442.703L475.625,1446.87C475.625,1451.036,475.625,1459.37,463.478,1467.496C451.331,1475.623,427.037,1483.543,414.89,1487.503L402.743,1491.463" id="my-svg-L_COMPUTE_SLOT_SAMPLING_PARAMS_0" class="edge-thickness-normal edge-pattern-solid edge-thickness-normal edge-pattern-solid flowchart-link" style=";" data-edge="true" data-et="edge" data-id="L_COMPUTE_SLOT_SAMPLING_PARAMS_0" data-points="W3sieCI6NDc1LjYyNSwieSI6MTQ0Mi43MDMxMjV9LHsieCI6NDc1LjYyNSwieSI6MTQ2Ny43MDMxMjV9LHsieCI6Mzk4Ljk0MDQyOTY4NzUsInkiOjE0OTIuNzAzMTI1fV0=" data-look="classic" marker-end="url(#my-svg_flowchart-v2-pointEnd)"/><path d="M152.742,1430.703L152.742,1436.87C152.742,1443.036,152.742,1455.37,165.198,1465.501C177.654,1475.632,202.566,1483.561,215.022,1487.526L227.478,1491.49" id="my-svg-L_EMOTION_STATE_SAMPLING_PARAMS_0" class="edge-thickness-normal edge-pattern-solid edge-thickness-normal edge-pattern-solid flowchart-link" style=";" data-edge="true" data-et="edge" data-id="L_EMOTION_STATE_SAMPLING_PARAMS_0" data-points="W3sieCI6MTUyLjc0MjE4NzUsInkiOjE0MzAuNzAzMTI1fSx7IngiOjE1Mi43NDIxODc1LCJ5IjoxNDY3LjcwMzEyNX0seyJ4IjoyMzEuMjg5NzM4NTgxNzMwNzcsInkiOjE0OTIuNzAzMTI1fV0=" data-look="classic" marker-end="url(#my-svg_flowchart-v2-pointEnd)"/><path d="M316.121,1546.703L316.121,1550.87C316.121,1555.036,316.121,1563.37,316.121,1571.036C316.121,1578.703,316.121,1585.703,316.121,1589.203L316.121,1592.703" id="my-svg-L_SAMPLING_PARAMS_COMPUTE_PARAMS_0" class="edge-thickness-normal edge-pattern-solid edge-thickness-normal edge-pattern-solid flowchart-link" style=";" data-edge="true" data-et="edge" data-id="L_SAMPLING_PARAMS_COMPUTE_PARAMS_0" data-points="W3sieCI6MzE2LjEyMTA5Mzc1LCJ5IjoxNTQ2LjcwMzEyNX0seyJ4IjozMTYuMTIxMDkzNzUsInkiOjE1NzEuNzAzMTI1fSx7IngiOjMxNi4xMjEwOTM3NSwieSI6MTU5Ni43MDMxMjV9XQ==" data-look="classic" marker-end="url(#my-svg_flowchart-v2-pointEnd)"/><path d="M316.121,1770.703L316.121,1774.87C316.121,1779.036,316.121,1787.37,316.121,1795.036C316.121,1802.703,316.121,1809.703,316.121,1813.203L316.121,1816.703" id="my-svg-L_COMPUTE_PARAMS_CALL_KRYSTAL_0" class="edge-thickness-normal edge-pattern-solid edge-thickness-normal edge-pattern-solid flowchart-link" style=";" data-edge="true" data-et="edge" data-id="L_COMPUTE_PARAMS_CALL_KRYSTAL_0" data-points="W3sieCI6MzE2LjEyMTA5Mzc1LCJ5IjoxNzcwLjcwMzEyNX0seyJ4IjozMTYuMTIxMDkzNzUsInkiOjE3OTUuNzAzMTI1fSx7IngiOjMxNi4xMjEwOTM3NSwieSI6MTgyMC43MDMxMjV9XQ==" data-look="classic" marker-end="url(#my-svg_flowchart-v2-pointEnd)"/><path d="M407.307,1946.703L413.338,1950.87C419.369,1955.036,431.431,1963.37,437.461,1971.036C443.492,1978.703,443.492,1985.703,443.492,1989.203L443.492,1992.703" id="my-svg-L_CALL_KRYSTAL_DEGENERATE_0" class="edge-thickness-normal edge-pattern-solid edge-thickness-normal edge-pattern-solid flowchart-link" style=";" data-edge="true" data-et="edge" data-id="L_CALL_KRYSTAL_DEGENERATE_0" data-points="W3sieCI6NDA3LjMwNzIxNzY4NDY1OTEsInkiOjE5NDYuNzAzMTI1fSx7IngiOjQ0My40OTIxODc1LCJ5IjoxOTcxLjcwMzEyNX0seyJ4Ijo0NDMuNDkyMTg3NSwieSI6MTk5Ni43MDMxMjV9XQ==" data-look="classic" marker-end="url(#my-svg_flowchart-v2-pointEnd)"/><path d="M499.607,2145.792L518.339,2161.311C537.072,2176.83,574.538,2207.868,593.271,2234.054C612.004,2260.24,612.004,2281.573,612.004,2300.906C612.004,2320.24,612.004,2337.573,607.946,2349.956C603.889,2362.339,595.774,2369.772,591.716,2373.488L587.659,2377.205" id="my-svg-L_DEGENERATE_TRUNCATE_0" class="edge-thickness-normal edge-pattern-solid edge-thickness-normal edge-pattern-solid flowchart-link" style=";" data-edge="true" data-et="edge" data-id="L_DEGENERATE_TRUNCATE_0" data-points="W3sieCI6NDk5LjYwNjUwMjI1MTkyMzg3LCJ5IjoyMTQ1Ljc5MTkzNTI0ODA3NjJ9LHsieCI6NjEyLjAwMzkwNjI1LCJ5IjoyMjM4LjkwNjI1fSx7IngiOjYxMi4wMDM5MDYyNSwieSI6MjMwMi45MDYyNX0seyJ4Ijo2MTIuMDAzOTA2MjUsInkiOjIzNTQuOTA2MjV9LHsieCI6NTg0LjcwODk4NDM3NSwieSI6MjM3OS45MDYyNX1d" data-look="classic" marker-end="url(#my-svg_flowchart-v2-pointEnd)"/><path d="M384.546,2142.96L362.954,2158.951C341.361,2174.942,298.177,2206.924,270.681,2228.619C243.186,2250.313,231.379,2261.72,225.476,2267.423L219.573,2273.127" id="my-svg-L_DEGENERATE_RETRY_0" class="edge-thickness-normal edge-pattern-solid edge-thickness-normal edge-pattern-solid flowchart-link" style=";" data-edge="true" data-et="edge" data-id="L_DEGENERATE_RETRY_0" data-points="W3sieCI6Mzg0LjU0NTgyMjI4MzQzNjksInkiOjIxNDIuOTU5ODg0NzgzNDM3fSx7IngiOjI1NC45OTIxODc1LCJ5IjoyMjM4LjkwNjI1fSx7IngiOjIxNi42OTU5MjI4NTE1NjI1LCJ5IjoyMjc1LjkwNjI1fV0=" data-look="classic" marker-end="url(#my-svg_flowchart-v2-pointEnd)"/><path d="M173.559,2275.906L170.09,2269.74C166.62,2263.573,159.681,2251.24,156.212,2221.806C152.742,2192.372,152.742,2145.839,152.742,2101.305C152.742,2056.771,152.742,2014.237,159.891,1989.12C167.04,1964.002,181.337,1956.301,188.486,1952.45L195.635,1948.6" id="my-svg-L_RETRY_CALL_KRYSTAL_0" class="edge-thickness-normal edge-pattern-solid edge-thickness-normal edge-pattern-solid flowchart-link" style=";" data-edge="true" data-et="edge" data-id="L_RETRY_CALL_KRYSTAL_0" data-points="W3sieCI6MTczLjU1OTIwNDEwMTU2MjUsInkiOjIyNzUuOTA2MjV9LHsieCI6MTUyLjc0MjE4NzUsInkiOjIyMzguOTA2MjV9LHsieCI6MTUyLjc0MjE4NzUsInkiOjIwOTkuMzA0Njg3NX0seyJ4IjoxNTIuNzQyMTg3NSwieSI6MTk3MS43MDMxMjV9LHsieCI6MTk5LjE1NjY0OTUwMjg0MDksInkiOjE5NDYuNzAzMTI1fV0=" data-look="classic" marker-end="url(#my-svg_flowchart-v2-pointEnd)"/><path d="M445.339,2200.06L445.457,2206.534C445.576,2213.009,445.813,2225.957,445.932,2237.932C446.051,2249.906,446.051,2260.906,446.051,2266.406L446.051,2271.906" id="my-svg-L_DEGENERATE_USE_ANYWAY_0" class="edge-thickness-normal edge-pattern-solid edge-thickness-normal edge-pattern-solid flowchart-link" style=";" data-edge="true" data-et="edge" data-id="L_DEGENERATE_USE_ANYWAY_0" data-points="W3sieCI6NDQ1LjMzODgwNjk5OTI4NTU3LCJ5IjoyMjAwLjA1OTYzMDUwMDcxNDN9LHsieCI6NDQ2LjA1MDc4MTI1LCJ5IjoyMjM4LjkwNjI1fSx7IngiOjQ0Ni4wNTA3ODEyNSwieSI6MjI3NS45MDYyNX1d" data-look="classic" marker-end="url(#my-svg_flowchart-v2-pointEnd)"/><path d="M446.051,2329.906L446.051,2334.073C446.051,2338.24,446.051,2346.573,450.108,2354.456C454.166,2362.339,462.281,2369.772,466.338,2373.488L470.396,2377.205" id="my-svg-L_USE_ANYWAY_TRUNCATE_0" class="edge-thickness-normal edge-pattern-solid edge-thickness-normal edge-pattern-solid flowchart-link" style=";" data-edge="true" data-et="edge" data-id="L_USE_ANYWAY_TRUNCATE_0" data-points="W3sieCI6NDQ2LjA1MDc4MTI1LCJ5IjoyMzI5LjkwNjI1fSx7IngiOjQ0Ni4wNTA3ODEyNSwieSI6MjM1NC45MDYyNX0seyJ4Ijo0NzMuMzQ1NzAzMTI1LCJ5IjoyMzc5LjkwNjI1fV0=" data-look="classic" marker-end="url(#my-svg_flowchart-v2-pointEnd)"/><path d="M529.027,2481.906L529.027,2486.073C529.027,2490.24,529.027,2498.573,529.027,2506.24C529.027,2513.906,529.027,2520.906,529.027,2524.406L529.027,2527.906" id="my-svg-L_TRUNCATE_SAVE_SESSION_0" class="edge-thickness-normal edge-pattern-solid edge-thickness-normal edge-pattern-solid flowchart-link" style=";" data-edge="true" data-et="edge" data-id="L_TRUNCATE_SAVE_SESSION_0" data-points="W3sieCI6NTI5LjAyNzM0Mzc1LCJ5IjoyNDgxLjkwNjI1fSx7IngiOjUyOS4wMjczNDM3NSwieSI6MjUwNi45MDYyNX0seyJ4Ijo1MjkuMDI3MzQzNzUsInkiOjI1MzEuOTA2MjV9XQ==" data-look="classic" marker-end="url(#my-svg_flowchart-v2-pointEnd)"/><path d="M529.027,2609.906L529.027,2614.073C529.027,2618.24,529.027,2626.573,529.027,2634.24C529.027,2641.906,529.027,2648.906,529.027,2652.406L529.027,2655.906" id="my-svg-L_SAVE_SESSION_RESPOND_0" class="edge-thickness-normal edge-pattern-solid edge-thickness-normal edge-pattern-solid flowchart-link" style=";" data-edge="true" data-et="edge" data-id="L_SAVE_SESSION_RESPOND_0" data-points="W3sieCI6NTI5LjAyNzM0Mzc1LCJ5IjoyNjA5LjkwNjI1fSx7IngiOjUyOS4wMjczNDM3NSwieSI6MjYzNC45MDYyNX0seyJ4Ijo1MjkuMDI3MzQzNzUsInkiOjI2NTkuOTA2MjV9XQ==" data-look="classic" marker-end="url(#my-svg_flowchart-v2-pointEnd)"/></g><g class="edgeLabels"><g class="edgeLabel"><g class="label" data-id="L_START_EMBED_0" transform="translate(0, 0)"><foreignObject width="0" height="0"><div xmlns="http://www.w3.org/1999/xhtml" class="labelBkg" style="display: table-cell; white-space: nowrap; line-height: 1.5; max-width: 200px; text-align: center;"><span class="edgeLabel"></span></div></foreignObject></g></g><g class="edgeLabel"><g class="label" data-id="L_EMBED_CLASSIFY_0" transform="translate(0, 0)"><foreignObject width="0" height="0"><div xmlns="http://www.w3.org/1999/xhtml" class="labelBkg" style="display: table-cell; white-space: nowrap; line-height: 1.5; max-width: 200px; text-align: center;"><span class="edgeLabel"></span></div></foreignObject></g></g><g class="edgeLabel"><g class="label" data-id="L_EMBED_SCORE_EMOTION_0" transform="translate(0, 0)"><foreignObject width="0" height="0"><div xmlns="http://www.w3.org/1999/xhtml" class="labelBkg" style="display: table-cell; white-space: nowrap; line-height: 1.5; max-width: 200px; text-align: center;"><span class="edgeLabel"></span></div></foreignObject></g></g><g class="edgeLabel"><g class="label" data-id="L_CLASSIFY_LABEL_0" transform="translate(0, 0)"><foreignObject width="0" height="0"><div xmlns="http://www.w3.org/1999/xhtml" class="labelBkg" style="display: table-cell; white-space: nowrap; line-height: 1.5; max-width: 200px; text-align: center;"><span class="edgeLabel"></span></div></foreignObject></g></g><g class="edgeLabel" transform="translate(715.54296875, 563.15625)"><g class="label" data-id="L_LABEL_BACKEND_0" transform="translate(-27.5625, -12)"><foreignObject width="55.125" height="24"><div xmlns="http://www.w3.org/1999/xhtml" class="labelBkg" style="display: table-cell; white-space: nowrap; line-height: 1.5; max-width: 200px; text-align: center;"><span class="edgeLabel"><p>FUTILE</p></span></div></foreignObject></g></g><g class="edgeLabel" transform="translate(399.45703125, 563.15625)"><g class="label" data-id="L_LABEL_BACKEND2_0" transform="translate(-56.0078125, -12)"><foreignObject width="112.015625" height="24"><div xmlns="http://www.w3.org/1999/xhtml" class="labelBkg" style="display: table-cell; white-space: nowrap; line-height: 1.5; max-width: 200px; text-align: center;"><span class="edgeLabel"><p>INTERESSANT</p></span></div></foreignObject></g></g><g class="edgeLabel"><g class="label" data-id="L_SCORE_EMOTION_UPDATE_EMA_0" transform="translate(0, 0)"><foreignObject width="0" height="0"><div xmlns="http://www.w3.org/1999/xhtml" class="labelBkg" style="display: table-cell; white-space: nowrap; line-height: 1.5; max-width: 200px; text-align: center;"><span class="edgeLabel"></span></div></foreignObject></g></g><g class="edgeLabel"><g class="label" data-id="L_UPDATE_EMA_EMOTION_STATE_0" transform="translate(0, 0)"><foreignObject width="0" height="0"><div xmlns="http://www.w3.org/1999/xhtml" class="labelBkg" style="display: table-cell; white-space: nowrap; line-height: 1.5; max-width: 200px; text-align: center;"><span class="edgeLabel"></span></div></foreignObject></g></g><g class="edgeLabel"><g class="label" data-id="L_BACKEND_APPEND_SESSION_0" transform="translate(0, 0)"><foreignObject width="0" height="0"><div xmlns="http://www.w3.org/1999/xhtml" class="labelBkg" style="display: table-cell; white-space: nowrap; line-height: 1.5; max-width: 200px; text-align: center;"><span class="edgeLabel"></span></div></foreignObject></g></g><g class="edgeLabel"><g class="label" data-id="L_BACKEND2_APPEND_SESSION_0" transform="translate(0, 0)"><foreignObject width="0" height="0"><div xmlns="http://www.w3.org/1999/xhtml" class="labelBkg" style="display: table-cell; white-space: nowrap; line-height: 1.5; max-width: 200px; text-align: center;"><span class="edgeLabel"></span></div></foreignObject></g></g><g class="edgeLabel"><g class="label" data-id="L_APPEND_SESSION_FEW_SHOT_0" transform="translate(0, 0)"><foreignObject width="0" height="0"><div xmlns="http://www.w3.org/1999/xhtml" class="labelBkg" style="display: table-cell; white-space: nowrap; line-height: 1.5; max-width: 200px; text-align: center;"><span class="edgeLabel"></span></div></foreignObject></g></g><g class="edgeLabel" transform="translate(471.75, 1103.703125)"><g class="label" data-id="L_FEW_SHOT_INJECT_0" transform="translate(-12.453125, -12)"><foreignObject width="24.90625" height="24"><div xmlns="http://www.w3.org/1999/xhtml" class="labelBkg" style="display: table-cell; white-space: nowrap; line-height: 1.5; max-width: 200px; text-align: center;"><span class="edgeLabel"><p>yes</p></span></div></foreignObject></g></g><g class="edgeLabel" transform="translate(639.9140625, 1215.703125)"><g class="label" data-id="L_FEW_SHOT_COMPUTE_SLOT_0" transform="translate(-8.8984375, -12)"><foreignObject width="17.796875" height="24"><div xmlns="http://www.w3.org/1999/xhtml" class="labelBkg" style="display: table-cell; white-space: nowrap; line-height: 1.5; max-width: 200px; text-align: center;"><span class="edgeLabel"><p>no</p></span></div></foreignObject></g></g><g class="edgeLabel"><g class="label" data-id="L_INJECT_COMPUTE_SLOT_0" transform="translate(0, 0)"><foreignObject width="0" height="0"><div xmlns="http://www.w3.org/1999/xhtml" class="labelBkg" style="display: table-cell; white-space: nowrap; line-height: 1.5; max-width: 200px; text-align: center;"><span class="edgeLabel"></span></div></foreignObject></g></g><g class="edgeLabel"><g class="label" data-id="L_COMPUTE_SLOT_SAMPLING_PARAMS_0" transform="translate(0, 0)"><foreignObject width="0" height="0"><div xmlns="http://www.w3.org/1999/xhtml" class="labelBkg" style="display: table-cell; white-space: nowrap; line-height: 1.5; max-width: 200px; text-align: center;"><span class="edgeLabel"></span></div></foreignObject></g></g><g class="edgeLabel"><g class="label" data-id="L_EMOTION_STATE_SAMPLING_PARAMS_0" transform="translate(0, 0)"><foreignObject width="0" height="0"><div xmlns="http://www.w3.org/1999/xhtml" class="labelBkg" style="display: table-cell; white-space: nowrap; line-height: 1.5; max-width: 200px; text-align: center;"><span class="edgeLabel"></span></div></foreignObject></g></g><g class="edgeLabel"><g class="label" data-id="L_SAMPLING_PARAMS_COMPUTE_PARAMS_0" transform="translate(0, 0)"><foreignObject width="0" height="0"><div xmlns="http://www.w3.org/1999/xhtml" class="labelBkg" style="display: table-cell; white-space: nowrap; line-height: 1.5; max-width: 200px; text-align: center;"><span class="edgeLabel"></span></div></foreignObject></g></g><g class="edgeLabel"><g class="label" data-id="L_COMPUTE_PARAMS_CALL_KRYSTAL_0" transform="translate(0, 0)"><foreignObject width="0" height="0"><div xmlns="http://www.w3.org/1999/xhtml" class="labelBkg" style="display: table-cell; white-space: nowrap; line-height: 1.5; max-width: 200px; text-align: center;"><span class="edgeLabel"></span></div></foreignObject></g></g><g class="edgeLabel"><g class="label" data-id="L_CALL_KRYSTAL_DEGENERATE_0" transform="translate(0, 0)"><foreignObject width="0" height="0"><div xmlns="http://www.w3.org/1999/xhtml" class="labelBkg" style="display: table-cell; white-space: nowrap; line-height: 1.5; max-width: 200px; text-align: center;"><span class="edgeLabel"></span></div></foreignObject></g></g><g class="edgeLabel" transform="translate(612.00390625, 2302.90625)"><g class="label" data-id="L_DEGENERATE_TRUNCATE_0" transform="translate(-8.8984375, -12)"><foreignObject width="17.796875" height="24"><div xmlns="http://www.w3.org/1999/xhtml" class="labelBkg" style="display: table-cell; white-space: nowrap; line-height: 1.5; max-width: 200px; text-align: center;"><span class="edgeLabel"><p>no</p></span></div></foreignObject></g></g><g class="edgeLabel" transform="translate(298.37261, 2206.77906)"><g class="label" data-id="L_DEGENERATE_RETRY_0" transform="translate(-52.015625, -12)"><foreignObject width="104.03125" height="24"><div xmlns="http://www.w3.org/1999/xhtml" class="labelBkg" style="display: table-cell; white-space: nowrap; line-height: 1.5; max-width: 200px; text-align: center;"><span class="edgeLabel"><p>yes, retries left</p></span></div></foreignObject></g></g><g class="edgeLabel"><g class="label" data-id="L_RETRY_CALL_KRYSTAL_0" transform="translate(0, 0)"><foreignObject width="0" height="0"><div xmlns="http://www.w3.org/1999/xhtml" class="labelBkg" style="display: table-cell; white-space: nowrap; line-height: 1.5; max-width: 200px; text-align: center;"><span class="edgeLabel"></span></div></foreignObject></g></g><g class="edgeLabel" transform="translate(446.05078125, 2238.90625)"><g class="label" data-id="L_DEGENERATE_USE_ANYWAY_0" transform="translate(-50.2421875, -12)"><foreignObject width="100.484375" height="24"><div xmlns="http://www.w3.org/1999/xhtml" class="labelBkg" style="display: table-cell; white-space: nowrap; line-height: 1.5; max-width: 200px; text-align: center;"><span class="edgeLabel"><p>yes, no retries</p></span></div></foreignObject></g></g><g class="edgeLabel"><g class="label" data-id="L_USE_ANYWAY_TRUNCATE_0" transform="translate(0, 0)"><foreignObject width="0" height="0"><div xmlns="http://www.w3.org/1999/xhtml" class="labelBkg" style="display: table-cell; white-space: nowrap; line-height: 1.5; max-width: 200px; text-align: center;"><span class="edgeLabel"></span></div></foreignObject></g></g><g class="edgeLabel"><g class="label" data-id="L_TRUNCATE_SAVE_SESSION_0" transform="translate(0, 0)"><foreignObject width="0" height="0"><div xmlns="http://www.w3.org/1999/xhtml" class="labelBkg" style="display: table-cell; white-space: nowrap; line-height: 1.5; max-width: 200px; text-align: center;"><span class="edgeLabel"></span></div></foreignObject></g></g><g class="edgeLabel"><g class="label" data-id="L_SAVE_SESSION_RESPOND_0" transform="translate(0, 0)"><foreignObject width="0" height="0"><div xmlns="http://www.w3.org/1999/xhtml" class="labelBkg" style="display: table-cell; white-space: nowrap; line-height: 1.5; max-width: 200px; text-align: center;"><span class="edgeLabel"></span></div></foreignObject></g></g></g><g class="nodes"><g class="node default" id="my-svg-flowchart-START-0" data-look="classic" transform="translate(316.12109375, 27.5)"><g class="basic label-container outer-path"><path d="M-58.5390625 -19.5 C-29.435012633429384 -19.5, -0.330962766858768 -19.5, 58.5390625 -19.5 C58.5390625 -19.5, 58.5390625 -19.5, 58.5390625 -19.5 C58.79309197654523 -19.491853769125576, 59.047121453090455 -19.48370753825115, 59.7884317896239 -19.45993515863156 C60.143376720961214 -19.425694047989182, 60.49832165229853 -19.391452937346806, 61.032667152847864 -19.3399052695533 C61.283357773027504 -19.29937555421745, 61.53404839320715 -19.2588458388816, 62.26665575967676 -19.140403561325776 C62.70744964478394 -19.039795233498978, 63.148243529891126 -18.939186905672184, 63.48532688623539 -18.862249829261074 C63.9283219619852 -18.730771216107136, 64.371317037735 -18.5992926029532, 64.6836727514606 -18.50658706670804 C65.10040778015194 -18.353224723893252, 65.51714280884327 -18.199862381078464, 65.8567690951478 -18.074876768247425 C66.12430309724041 -17.956447401635227, 66.39183709933302 -17.83801803502303, 66.99979541279238 -17.568892924097174 C67.27145505159885 -17.427168264538146, 67.5431146904053 -17.285443604979115, 68.10805476407678 -16.990714730406097 C68.49160851805917 -16.758202190729925, 68.87516227204155 -16.525689651053753, 69.1769930736057 -16.342718045390892 C69.5789172792631 -16.062353118542738, 69.98084148492048 -15.781988191694586, 70.20221784457871 -15.627565626425154 C70.5346746023696 -15.362440209132796, 70.86713136016049 -15.097314791840436, 71.17951620850187 -14.848196188198123 C71.41587702431494 -14.63353954904118, 71.65223784012802 -14.418882909884235, 72.10487223676799 -14.007812326905688 C72.39520286191701 -13.708022119851696, 72.68553348706604 -13.408231912797705, 72.97448344296865 -13.10986736009568 C73.18200989267504 -12.866094983681032, 73.38953634238145 -12.622322607266385, 73.78477640812658 -12.158051136245305 C74.013222848242 -11.851953718389483, 74.24166928835741 -11.54585630053366, 74.53242146464063 -11.156274872382312 C74.72079120827709 -10.866888361798077, 74.90916095191353 -10.577501851213842, 75.21434637860425 -10.108655082055241 C75.4134249315483 -9.75517095241362, 75.61250348449238 -9.401686822772, 75.8277489742735 -9.019496659696287 C76.0265802221909 -8.606619319088642, 76.22541147010828 -8.193741978480999, 76.37010864880834 -7.893275190886684 C76.55316222929193 -7.441129307992, 76.73621580977552 -6.988983425097316, 76.83919672997033 -6.734618561215508 C76.98910506923377 -6.283118528004264, 77.13901340849722 -5.83161849479302, 77.23308563421489 -5.548287939305138 C77.33909047774695 -5.144045528127581, 77.44509532127901 -4.739803116950025, 77.55015678754556 -4.339158212148133 C77.61272146957772 -4.017901792963206, 77.67528615160988 -3.6966453737782796, 77.78910727658177 -3.1121979531509023 C77.84917409836181 -2.6463315449605407, 77.90924092014184 -2.1804651367701786, 77.94895520250937 -1.872449005199798 C77.97967133510677 -1.3940204463793018, 78.01038746770416 -0.9155918875588057, 78.02904371591342 -0.6250057626472757 C78.02904371591342 -0.1748397344061829, 78.02904371591342 0.2753262938349099, 78.02904371591342 0.625005762647271 C78.00812033192919 0.9509043572530804, 77.98719694794498 1.27680295185889, 77.94895520250937 1.8724490051997846 C77.90301116057485 2.2287819217666804, 77.85706711864032 2.585114838333576, 77.78910727658177 3.1121979531508885 C77.69370675039099 3.602059492232244, 77.5983062242002 4.0919210313136, 77.55015678754556 4.339158212148129 C77.44793498468218 4.728974249675796, 77.34571318181881 5.1187902872034625, 77.23308563421489 5.548287939305125 C77.10846719667975 5.923618817909319, 76.98384875914462 6.298949696513512, 76.83919672997033 6.734618561215495 C76.70816679851795 7.058265025194235, 76.57713686706559 7.381911489172975, 76.37010864880834 7.893275190886679 C76.18161648531951 8.284683201457458, 75.99312432183068 8.676091212028238, 75.8277489742735 9.019496659696284 C75.61926833659878 9.389675142841522, 75.41078769892404 9.75985362598676, 75.21434637860425 10.108655082055236 C75.01333378411321 10.417464406632915, 74.8123211896222 10.726273731210592, 74.53242146464065 11.156274872382301 C74.3494754106213 11.401405918039845, 74.16652935660194 11.64653696369739, 73.78477640812659 12.158051136245302 C73.46484817262218 12.533857046101087, 73.14491993711778 12.909662955956872, 72.97448344296866 13.10986736009567 C72.71544933516236 13.377341343501442, 72.45641522735606 13.644815326907215, 72.10487223676799 14.007812326905684 C71.80419778910675 14.280876904861678, 71.50352334144551 14.553941482817672, 71.1795162085019 14.848196188198111 C70.81707712867873 15.137231709448102, 70.45463804885559 15.426267230698093, 70.20221784457871 15.627565626425152 C69.89602434646345 15.84115295580746, 69.58983084834817 16.05474028518977, 69.1769930736057 16.34271804539089 C68.84994171245528 16.540978502487413, 68.52289035130484 16.739238959583936, 68.10805476407678 16.990714730406093 C67.72404295097374 17.191053447330642, 67.34003113787071 17.391392164255194, 66.99979541279238 17.56889292409717 C66.55897502524083 17.764031033194055, 66.11815463768927 17.959169142290943, 65.8567690951478 18.07487676824742 C65.61472930042639 18.16394965009624, 65.37268950570497 18.253022531945053, 64.68367275146062 18.506587066708033 C64.2573343814211 18.63312205703999, 63.83099601138158 18.759657047371952, 63.48532688623541 18.86224982926107 C63.09751162365998 18.950766132212816, 62.709696361084546 19.03928243516456, 62.266655759676766 19.140403561325773 C61.94206844813296 19.19288032064398, 61.617481136589156 19.245357079962186, 61.03266715284788 19.3399052695533 C60.66643202248865 19.375235532116868, 60.30019689212943 19.410565794680437, 59.7884317896239 19.45993515863156 C59.29529267588035 19.47574917017226, 58.8021535621368 19.49156318171296, 58.53906250000001 19.5 C58.53906250000001 19.5, 58.53906250000001 19.5, 58.5390625 19.5 C32.6538198037776 19.5, 6.768577107555203 19.5, -58.53906249999999 19.5 C-58.8870295704772 19.48884137332661, -59.23499664095442 19.477682746653223, -59.78843178962389 19.45993515863156 C-60.17534809196837 19.422609808279322, -60.562264394312834 19.385284457927085, -61.03266715284787 19.3399052695533 C-61.29879013122155 19.29688057022436, -61.56491310959524 19.253855870895425, -62.26665575967676 19.140403561325773 C-62.68428139593365 19.045083235112102, -63.101907032190546 18.949762908898432, -63.485326886235384 18.862249829261074 C-63.8047626609052 18.76744296809167, -64.12419843557501 18.672636106922273, -64.68367275146059 18.506587066708043 C-65.06016099738986 18.36803591198688, -65.43664924331911 18.22948475726572, -65.8567690951478 18.074876768247425 C-66.1034118390707 17.965695341909804, -66.3500545829936 17.85651391557218, -66.99979541279238 17.568892924097174 C-67.36590510629924 17.3778937314991, -67.7320147998061 17.186894538901022, -68.10805476407678 16.990714730406097 C-68.46721684063112 16.772988568928213, -68.82637891718547 16.555262407450332, -69.17699307360569 16.3427180453909 C-69.39434921237888 16.19109981217832, -69.61170535115207 16.039481578965738, -70.20221784457871 15.627565626425156 C-70.43646613448097 15.440758848836902, -70.6707144243832 15.253952071248646, -71.17951620850187 14.848196188198125 C-71.51227866972395 14.545990125328483, -71.84504113094604 14.243784062458843, -72.10487223676797 14.007812326905697 C-72.41501330843161 13.68756620735746, -72.72515438009525 13.367320087809224, -72.97448344296865 13.109867360095677 C-73.14831794640742 12.905671460893048, -73.32215244984617 12.701475561690419, -73.78477640812658 12.158051136245307 C-74.00720502298142 11.860017056003482, -74.22963363783629 11.561982975761657, -74.53242146464063 11.156274872382316 C-74.73049027512238 10.851987990559591, -74.92855908560412 10.547701108736867, -75.21434637860425 10.108655082055249 C-75.35997085218466 9.85008408313626, -75.50559532576509 9.59151308421727, -75.8277489742735 9.019496659696289 C-76.00346305152287 8.65462261860902, -76.17917712877222 8.28974857752175, -76.37010864880834 7.893275190886686 C-76.54991645989007 7.44914642116728, -76.7297242709718 7.005017651447875, -76.83919672997033 6.73461856121551 C-76.94425564349328 6.4181978525490635, -77.04931455701623 6.101777143882617, -77.23308563421489 5.5482879393051325 C-77.31470211884609 5.2370489105981655, -77.39631860347728 4.925809881891198, -77.55015678754556 4.339158212148136 C-77.6384339309433 3.885873738181651, -77.72671107434103 3.432589264215166, -77.78910727658177 3.112197953150904 C-77.82506848365286 2.8332899324511223, -77.86102969072395 2.5543819117513404, -77.94895520250937 1.872449005199809 C-77.972167481808 1.5108990185089108, -77.99537976110665 1.1493490318180126, -78.02904371591342 0.6250057626472781 C-78.02904371591342 0.22384619430690372, -78.02904371591342 -0.1773133740334707, -78.02904371591342 -0.6250057626472687 C-78.00869956518751 -0.9418823317061407, -77.98835541446161 -1.2587589007650126, -77.94895520250937 -1.8724490051997822 C-77.89715594057283 -2.27419385185832, -77.84535667863629 -2.6759386985168576, -77.78910727658177 -3.112197953150895 C-77.71137542682975 -3.511334572995308, -77.63364357707772 -3.9104711928397204, -77.55015678754556 -4.339158212148126 C-77.45028731612265 -4.720003790386368, -77.35041784469976 -5.100849368624611, -77.23308563421489 -5.548287939305123 C-77.11739105988204 -5.896741563768544, -77.00169648554919 -6.245195188231967, -76.83919672997033 -6.734618561215485 C-76.67370884021216 -7.143376848408862, -76.50822095045399 -7.5521351356022395, -76.37010864880834 -7.893275190886676 C-76.20041225838814 -8.245653376515326, -76.03071586796793 -8.598031562143976, -75.8277489742735 -9.019496659696282 C-75.67554808613538 -9.289744748596679, -75.52334719799724 -9.559992837497077, -75.21434637860425 -10.108655082055243 C-74.99954226226663 -10.43865188773144, -74.78473814592901 -10.768648693407636, -74.53242146464063 -11.156274872382308 C-74.2665082593584 -11.51257434226914, -74.00059505407617 -11.868873812155972, -73.78477640812659 -12.158051136245302 C-73.60382011348781 -12.370612696632858, -73.42286381884905 -12.583174257020413, -72.97448344296866 -13.10986736009567 C-72.64798525953235 -13.44700354049305, -72.32148707609602 -13.78413972089043, -72.10487223676799 -14.007812326905677 C-71.82993693618545 -14.257501292505319, -71.55500163560289 -14.507190258104961, -71.1795162085019 -14.848196188198107 C-70.83901724221079 -15.119735052757227, -70.4985182759197 -15.391273917316346, -70.20221784457871 -15.627565626425149 C-69.86051565947926 -15.86592227870134, -69.51881347437981 -16.104278930977532, -69.17699307360571 -16.342718045390885 C-68.88621439462803 -16.518989789392347, -68.59543571565035 -16.695261533393808, -68.10805476407678 -16.99071473040609 C-67.87903237612302 -17.110195563505734, -67.65000998816924 -17.229676396605374, -66.9997954127924 -17.56889292409717 C-66.63388770770838 -17.730869410871446, -66.26798000262437 -17.892845897645717, -65.85676909514781 -18.07487676824742 C-65.43272225217068 -18.230929926309052, -65.00867540919354 -18.38698308437068, -64.68367275146062 -18.506587066708033 C-64.29695943831824 -18.621361548149086, -63.91024612517587 -18.73613602959014, -63.48532688623541 -18.862249829261067 C-63.1856173527382 -18.930656574494325, -62.885907819240984 -18.99906331972758, -62.266655759676766 -19.140403561325773 C-61.85215117017529 -19.20741744882527, -61.437646580673814 -19.27443133632477, -61.03266715284788 -19.3399052695533 C-60.64336353516242 -19.377460921345314, -60.25405991747697 -19.41501657313733, -59.7884317896239 -19.45993515863156 C-59.53275374183357 -19.468134255977066, -59.27707569404323 -19.476333353322573, -58.53906250000001 -19.5 C-58.53906250000001 -19.5, -58.5390625 -19.5, -58.5390625 -19.5" stroke="none" stroke-width="0" fill="#ECECFF" style=""/><path d="M-58.5390625 -19.5 C-18.40872051006737 -19.5, 21.721621479865263 -19.5, 58.5390625 -19.5 M-58.5390625 -19.5 C-13.253727015326731 -19.5, 32.03160846934654 -19.5, 58.5390625 -19.5 M58.5390625 -19.5 C58.5390625 -19.5, 58.5390625 -19.5, 58.5390625 -19.5 M58.5390625 -19.5 C58.5390625 -19.5, 58.5390625 -19.5, 58.5390625 -19.5 M58.5390625 -19.5 C58.91084306151308 -19.488077721019238, 59.282623623026154 -19.47615544203848, 59.7884317896239 -19.45993515863156 M58.5390625 -19.5 C59.03218489134283 -19.484186524714143, 59.52530728268566 -19.468373049428287, 59.7884317896239 -19.45993515863156 M59.7884317896239 -19.45993515863156 C60.10022766350826 -19.429856585667334, 60.41202353739262 -19.399778012703113, 61.032667152847864 -19.3399052695533 M59.7884317896239 -19.45993515863156 C60.194439348229594 -19.420768097748397, 60.60044690683528 -19.381601036865234, 61.032667152847864 -19.3399052695533 M61.032667152847864 -19.3399052695533 C61.29108431388815 -19.29812638701132, 61.549501474928434 -19.256347504469343, 62.26665575967676 -19.140403561325776 M61.032667152847864 -19.3399052695533 C61.47965863934824 -19.26763915248667, 61.92665012584861 -19.19537303542004, 62.26665575967676 -19.140403561325776 M62.26665575967676 -19.140403561325776 C62.62407139003693 -19.058825776051023, 62.981487020397104 -18.977247990776274, 63.48532688623539 -18.862249829261074 M62.26665575967676 -19.140403561325776 C62.691005124547864 -19.043548587932342, 63.11535448941897 -18.946693614538905, 63.48532688623539 -18.862249829261074 M63.48532688623539 -18.862249829261074 C63.864277033092975 -18.749779414823657, 64.24322717995057 -18.63730900038624, 64.6836727514606 -18.50658706670804 M63.48532688623539 -18.862249829261074 C63.91791592661317 -18.73385967278316, 64.35050496699094 -18.60546951630525, 64.6836727514606 -18.50658706670804 M64.6836727514606 -18.50658706670804 C65.11351406492149 -18.34840148994489, 65.54335537838236 -18.190215913181746, 65.8567690951478 -18.074876768247425 M64.6836727514606 -18.50658706670804 C65.03014748405933 -18.37908116233439, 65.37662221665805 -18.25157525796074, 65.8567690951478 -18.074876768247425 M65.8567690951478 -18.074876768247425 C66.22717427361512 -17.91090938341917, 66.59757945208243 -17.746941998590913, 66.99979541279238 -17.568892924097174 M65.8567690951478 -18.074876768247425 C66.09000486656264 -17.971630210935416, 66.32324063797746 -17.868383653623404, 66.99979541279238 -17.568892924097174 M66.99979541279238 -17.568892924097174 C67.24689268734352 -17.439982434237205, 67.49398996189466 -17.311071944377233, 68.10805476407678 -16.990714730406097 M66.99979541279238 -17.568892924097174 C67.29445808605952 -17.415167596194156, 67.58912075932666 -17.261442268291137, 68.10805476407678 -16.990714730406097 M68.10805476407678 -16.990714730406097 C68.43325208037311 -16.793578206195708, 68.75844939666943 -16.596441681985315, 69.1769930736057 -16.342718045390892 M68.10805476407678 -16.990714730406097 C68.50629982267633 -16.74929623553532, 68.90454488127587 -16.507877740664537, 69.1769930736057 -16.342718045390892 M69.1769930736057 -16.342718045390892 C69.42132706413956 -16.172281230642447, 69.66566105467344 -16.001844415894, 70.20221784457871 -15.627565626425154 M69.1769930736057 -16.342718045390892 C69.56907967030591 -16.069215408688034, 69.96116626700612 -15.795712771985178, 70.20221784457871 -15.627565626425154 M70.20221784457871 -15.627565626425154 C70.52979505623966 -15.366331517321246, 70.85737226790062 -15.105097408217336, 71.17951620850187 -14.848196188198123 M70.20221784457871 -15.627565626425154 C70.53215139431961 -15.364452400407274, 70.86208494406051 -15.101339174389393, 71.17951620850187 -14.848196188198123 M71.17951620850187 -14.848196188198123 C71.48871642970745 -14.567388728288757, 71.79791665091305 -14.286581268379392, 72.10487223676799 -14.007812326905688 M71.17951620850187 -14.848196188198123 C71.47129070827297 -14.583214307436226, 71.7630652080441 -14.318232426674328, 72.10487223676799 -14.007812326905688 M72.10487223676799 -14.007812326905688 C72.40027524164654 -13.702784471330833, 72.69567824652509 -13.39775661575598, 72.97448344296865 -13.10986736009568 M72.10487223676799 -14.007812326905688 C72.38984739638435 -13.713552077706055, 72.67482255600073 -13.41929182850642, 72.97448344296865 -13.10986736009568 M72.97448344296865 -13.10986736009568 C73.26710035528147 -12.766142884519045, 73.5597172675943 -12.422418408942411, 73.78477640812658 -12.158051136245305 M72.97448344296865 -13.10986736009568 C73.14238322852486 -12.912642718212902, 73.31028301408108 -12.715418076330124, 73.78477640812658 -12.158051136245305 M73.78477640812658 -12.158051136245305 C73.93849962593747 -11.95207602885195, 74.09222284374836 -11.746100921458593, 74.53242146464063 -11.156274872382312 M73.78477640812658 -12.158051136245305 C74.03380504618067 -11.824375448228446, 74.28283368423479 -11.490699760211587, 74.53242146464063 -11.156274872382312 M74.53242146464063 -11.156274872382312 C74.70410318174149 -10.892525651919339, 74.87578489884233 -10.628776431456368, 75.21434637860425 -10.108655082055241 M74.53242146464063 -11.156274872382312 C74.71534629169162 -10.875253215838182, 74.8982711187426 -10.594231559294052, 75.21434637860425 -10.108655082055241 M75.21434637860425 -10.108655082055241 C75.44326105011606 -9.70219390266196, 75.67217572162788 -9.295732723268681, 75.8277489742735 -9.019496659696287 M75.21434637860425 -10.108655082055241 C75.38961822696959 -9.797442167083378, 75.56489007533493 -9.486229252111517, 75.8277489742735 -9.019496659696287 M75.8277489742735 -9.019496659696287 C76.03034969764727 -8.598791922649621, 76.23295042102104 -8.178087185602955, 76.37010864880834 -7.893275190886684 M75.8277489742735 -9.019496659696287 C76.04312951978382 -8.572254348538682, 76.25851006529415 -8.125012037381076, 76.37010864880834 -7.893275190886684 M76.37010864880834 -7.893275190886684 C76.49102884220795 -7.594599975356735, 76.61194903560758 -7.295924759826784, 76.83919672997033 -6.734618561215508 M76.37010864880834 -7.893275190886684 C76.55224003616688 -7.443407142840273, 76.73437142352542 -6.99353909479386, 76.83919672997033 -6.734618561215508 M76.83919672997033 -6.734618561215508 C76.94046089661805 -6.429627025526468, 77.04172506326576 -6.124635489837428, 77.23308563421489 -5.548287939305138 M76.83919672997033 -6.734618561215508 C76.97838501521186 -6.315405622709622, 77.11757330045339 -5.8961926842037355, 77.23308563421489 -5.548287939305138 M77.23308563421489 -5.548287939305138 C77.35764103862068 -5.073304199652092, 77.48219644302648 -4.598320459999046, 77.55015678754556 -4.339158212148133 M77.23308563421489 -5.548287939305138 C77.3393902571403 -5.142902339375563, 77.44569488006569 -4.7375167394459865, 77.55015678754556 -4.339158212148133 M77.55015678754556 -4.339158212148133 C77.608761347183 -4.038236184487934, 77.66736590682045 -3.7373141568277335, 77.78910727658177 -3.1121979531509023 M77.55015678754556 -4.339158212148133 C77.63499910766274 -3.9035108297771193, 77.71984142777991 -3.4678634474061054, 77.78910727658177 -3.1121979531509023 M77.78910727658177 -3.1121979531509023 C77.8423840778747 -2.6989936030174015, 77.89566087916762 -2.285789252883901, 77.94895520250937 -1.872449005199798 M77.78910727658177 -3.1121979531509023 C77.82832919545118 -2.8080004956437383, 77.86755111432058 -2.5038030381365743, 77.94895520250937 -1.872449005199798 M77.94895520250937 -1.872449005199798 C77.97018339775872 -1.541802729100353, 77.99141159300807 -1.211156453000908, 78.02904371591342 -0.6250057626472757 M77.94895520250937 -1.872449005199798 C77.96901758145474 -1.5599612590647984, 77.98907996040012 -1.2474735129297987, 78.02904371591342 -0.6250057626472757 M78.02904371591342 -0.6250057626472757 C78.02904371591342 -0.15842236711161994, 78.02904371591342 0.3081610284240358, 78.02904371591342 0.625005762647271 M78.02904371591342 -0.6250057626472757 C78.02904371591342 -0.2780130023275711, 78.02904371591342 0.06897975799213352, 78.02904371591342 0.625005762647271 M78.02904371591342 0.625005762647271 C78.00715127641548 0.9659981790867254, 77.98525883691754 1.3069905955261796, 77.94895520250937 1.8724490051997846 M78.02904371591342 0.625005762647271 C78.00290212631388 1.0321821217714144, 77.97676053671434 1.4393584808955575, 77.94895520250937 1.8724490051997846 M77.94895520250937 1.8724490051997846 C77.89159957856012 2.3172878984010743, 77.83424395461088 2.762126791602364, 77.78910727658177 3.1121979531508885 M77.94895520250937 1.8724490051997846 C77.91214203288293 2.15796467923984, 77.8753288632565 2.443480353279895, 77.78910727658177 3.1121979531508885 M77.78910727658177 3.1121979531508885 C77.72749113353751 3.4285838251067213, 77.66587499049325 3.744969697062554, 77.55015678754556 4.339158212148129 M77.78910727658177 3.1121979531508885 C77.71936338219312 3.47031811045931, 77.64961948780447 3.828438267767731, 77.55015678754556 4.339158212148129 M77.55015678754556 4.339158212148129 C77.42389216518706 4.820659940634617, 77.29762754282855 5.302161669121106, 77.23308563421489 5.548287939305125 M77.55015678754556 4.339158212148129 C77.425324858683 4.8151964594013155, 77.30049292982042 5.291234706654502, 77.23308563421489 5.548287939305125 M77.23308563421489 5.548287939305125 C77.14535848610987 5.812508131974533, 77.05763133800487 6.076728324643941, 76.83919672997033 6.734618561215495 M77.23308563421489 5.548287939305125 C77.12510549718849 5.873506907730214, 77.01712536016207 6.198725876155303, 76.83919672997033 6.734618561215495 M76.83919672997033 6.734618561215495 C76.67004231176416 7.152433244562907, 76.500887893558 7.57024792791032, 76.37010864880834 7.893275190886679 M76.83919672997033 6.734618561215495 C76.73969517092115 6.9803893357987175, 76.640193611872 7.226160110381939, 76.37010864880834 7.893275190886679 M76.37010864880834 7.893275190886679 C76.19237309966476 8.262346861614853, 76.01463755052119 8.631418532343028, 75.8277489742735 9.019496659696284 M76.37010864880834 7.893275190886679 C76.22241060081012 8.19997334778695, 76.0747125528119 8.506671504687219, 75.8277489742735 9.019496659696284 M75.8277489742735 9.019496659696284 C75.61515783815878 9.396973749054844, 75.40256670204404 9.774450838413403, 75.21434637860425 10.108655082055236 M75.8277489742735 9.019496659696284 C75.65821674415557 9.320518301270504, 75.48868451403763 9.621539942844722, 75.21434637860425 10.108655082055236 M75.21434637860425 10.108655082055236 C74.99210532876997 10.450077014678577, 74.76986427893569 10.791498947301918, 74.53242146464065 11.156274872382301 M75.21434637860425 10.108655082055236 C75.03902577711862 10.37799460611051, 74.86370517563299 10.647334130165785, 74.53242146464065 11.156274872382301 M74.53242146464065 11.156274872382301 C74.35534454058623 11.393541818575578, 74.1782676165318 11.630808764768856, 73.78477640812659 12.158051136245302 M74.53242146464065 11.156274872382301 C74.26021215940474 11.521010542620543, 73.98800285416885 11.885746212858784, 73.78477640812659 12.158051136245302 M73.78477640812659 12.158051136245302 C73.59842327911521 12.376952125375498, 73.41207015010383 12.595853114505694, 72.97448344296866 13.10986736009567 M73.78477640812659 12.158051136245302 C73.54733100685476 12.436968015605274, 73.30988560558293 12.715884894965248, 72.97448344296866 13.10986736009567 M72.97448344296866 13.10986736009567 C72.68869062443365 13.404971909259846, 72.40289780589863 13.700076458424023, 72.10487223676799 14.007812326905684 M72.97448344296866 13.10986736009567 C72.74661389572967 13.345161376057685, 72.51874434849069 13.580455392019699, 72.10487223676799 14.007812326905684 M72.10487223676799 14.007812326905684 C71.87591803919072 14.215742471349243, 71.64696384161347 14.423672615792801, 71.1795162085019 14.848196188198111 M72.10487223676799 14.007812326905684 C71.86693145172528 14.223903852313295, 71.62899066668255 14.439995377720905, 71.1795162085019 14.848196188198111 M71.1795162085019 14.848196188198111 C70.93598218265876 15.042408093095409, 70.69244815681563 15.236619997992705, 70.20221784457871 15.627565626425152 M71.1795162085019 14.848196188198111 C70.89575718829408 15.074486455669177, 70.61199816808629 15.300776723140245, 70.20221784457871 15.627565626425152 M70.20221784457871 15.627565626425152 C69.91071156764667 15.830907786109597, 69.61920529071463 16.03424994579404, 69.1769930736057 16.34271804539089 M70.20221784457871 15.627565626425152 C69.7997185181482 15.908331732628062, 69.39721919171768 16.18909783883097, 69.1769930736057 16.34271804539089 M69.1769930736057 16.34271804539089 C68.9051533391218 16.50750888994263, 68.6333136046379 16.67229973449437, 68.10805476407678 16.990714730406093 M69.1769930736057 16.34271804539089 C68.89622474602743 16.512921455546675, 68.61545641844916 16.68312486570246, 68.10805476407678 16.990714730406093 M68.10805476407678 16.990714730406093 C67.81666012554632 17.142735126680265, 67.52526548701584 17.294755522954432, 66.99979541279238 17.56889292409717 M68.10805476407678 16.990714730406093 C67.71291834914709 17.19685714497796, 67.3177819342174 17.40299955954983, 66.99979541279238 17.56889292409717 M66.99979541279238 17.56889292409717 C66.70569264564027 17.699083494866795, 66.41158987848816 17.82927406563642, 65.8567690951478 18.07487676824742 M66.99979541279238 17.56889292409717 C66.54627745875324 17.769651869218183, 66.0927595047141 17.970410814339193, 65.8567690951478 18.07487676824742 M65.8567690951478 18.07487676824742 C65.53061407216693 18.194904831648365, 65.20445904918606 18.314932895049306, 64.68367275146062 18.506587066708033 M65.8567690951478 18.07487676824742 C65.50962397405378 18.20262938178434, 65.16247885295978 18.33038199532126, 64.68367275146062 18.506587066708033 M64.68367275146062 18.506587066708033 C64.43592239264444 18.580118072736504, 64.18817203382827 18.653649078764975, 63.48532688623541 18.86224982926107 M64.68367275146062 18.506587066708033 C64.33312730664812 18.610627114677794, 63.98258186183564 18.71466716264755, 63.48532688623541 18.86224982926107 M63.48532688623541 18.86224982926107 C63.13412073378689 18.942410341723118, 62.78291458133836 19.022570854185165, 62.266655759676766 19.140403561325773 M63.48532688623541 18.86224982926107 C63.16202563332237 18.93604123050063, 62.838724380409325 19.009832631740192, 62.266655759676766 19.140403561325773 M62.266655759676766 19.140403561325773 C61.926335818108186 19.195423850258017, 61.58601587653961 19.25044413919026, 61.03266715284788 19.3399052695533 M62.266655759676766 19.140403561325773 C61.930245644071 19.194791739917502, 61.593835528465235 19.24917991850923, 61.03266715284788 19.3399052695533 M61.03266715284788 19.3399052695533 C60.70645461129268 19.37137460110915, 60.380242069737484 19.402843932664997, 59.7884317896239 19.45993515863156 M61.03266715284788 19.3399052695533 C60.731462069817 19.368962161661177, 60.43025698678612 19.398019053769055, 59.7884317896239 19.45993515863156 M59.7884317896239 19.45993515863156 C59.490279201261764 19.469496331821524, 59.19212661289962 19.479057505011493, 58.53906250000001 19.5 M59.7884317896239 19.45993515863156 C59.41556430008658 19.47189229327848, 59.04269681054926 19.483849427925403, 58.53906250000001 19.5 M58.53906250000001 19.5 C58.53906250000001 19.5, 58.53906250000001 19.5, 58.5390625 19.5 M58.53906250000001 19.5 C58.53906250000001 19.5, 58.53906250000001 19.5, 58.5390625 19.5 M58.5390625 19.5 C33.129231561777615 19.5, 7.719400623555231 19.5, -58.53906249999999 19.5 M58.5390625 19.5 C26.666694218162384 19.5, -5.205674063675232 19.5, -58.53906249999999 19.5 M-58.53906249999999 19.5 C-59.003664605801795 19.485101114760074, -59.4682667116036 19.47020222952015, -59.78843178962389 19.45993515863156 M-58.53906249999999 19.5 C-59.01257127785323 19.484815495123172, -59.48608005570648 19.46963099024634, -59.78843178962389 19.45993515863156 M-59.78843178962389 19.45993515863156 C-60.224608874816866 19.417857679802687, -60.66078596000984 19.375780200973814, -61.03266715284787 19.3399052695533 M-59.78843178962389 19.45993515863156 C-60.22166469841264 19.418141700959513, -60.654897607201384 19.376348243287467, -61.03266715284787 19.3399052695533 M-61.03266715284787 19.3399052695533 C-61.4183299194177 19.27755430431371, -61.80399268598754 19.215203339074122, -62.26665575967676 19.140403561325773 M-61.03266715284787 19.3399052695533 C-61.484445233899514 19.266865293000215, -61.93622331495115 19.19382531644713, -62.26665575967676 19.140403561325773 M-62.26665575967676 19.140403561325773 C-62.53107924421146 19.080050626505223, -62.79550272874616 19.019697691684673, -63.485326886235384 18.862249829261074 M-62.26665575967676 19.140403561325773 C-62.51938322127699 19.082720167416333, -62.77211068287722 19.025036773506894, -63.485326886235384 18.862249829261074 M-63.485326886235384 18.862249829261074 C-63.73405566543434 18.788428433198828, -63.9827844446333 18.714607037136584, -64.68367275146059 18.506587066708043 M-63.485326886235384 18.862249829261074 C-63.81840148769211 18.76339503589298, -64.15147608914883 18.664540242524886, -64.68367275146059 18.506587066708043 M-64.68367275146059 18.506587066708043 C-65.02120610202341 18.382371673576838, -65.35873945258622 18.258156280445633, -65.8567690951478 18.074876768247425 M-64.68367275146059 18.506587066708043 C-65.12671254157844 18.34354432852975, -65.5697523316963 18.180501590351458, -65.8567690951478 18.074876768247425 M-65.8567690951478 18.074876768247425 C-66.09034351571519 17.971480301001243, -66.3239179362826 17.868083833755065, -66.99979541279238 17.568892924097174 M-65.8567690951478 18.074876768247425 C-66.27399308187391 17.8901840858336, -66.69121706860004 17.705491403419774, -66.99979541279238 17.568892924097174 M-66.99979541279238 17.568892924097174 C-67.25753455847722 17.434430576883194, -67.51527370416207 17.29996822966921, -68.10805476407678 16.990714730406097 M-66.99979541279238 17.568892924097174 C-67.31756106071857 17.403114789112692, -67.63532670864477 17.23733665412821, -68.10805476407678 16.990714730406097 M-68.10805476407678 16.990714730406097 C-68.44407927253502 16.787014698679517, -68.78010378099324 16.583314666952933, -69.17699307360569 16.3427180453909 M-68.10805476407678 16.990714730406097 C-68.44174480253642 16.788429868111535, -68.77543484099606 16.58614500581697, -69.17699307360569 16.3427180453909 M-69.17699307360569 16.3427180453909 C-69.43843402736184 16.16034815364709, -69.699874981118 15.977978261903274, -70.20221784457871 15.627565626425156 M-69.17699307360569 16.3427180453909 C-69.54420427152749 16.0865674100372, -69.91141546944931 15.830416774683504, -70.20221784457871 15.627565626425156 M-70.20221784457871 15.627565626425156 C-70.45117565725702 15.429028395859829, -70.70013346993534 15.230491165294502, -71.17951620850187 14.848196188198125 M-70.20221784457871 15.627565626425156 C-70.4877668059183 15.399847928533829, -70.77331576725787 15.172130230642502, -71.17951620850187 14.848196188198125 M-71.17951620850187 14.848196188198125 C-71.4022850424272 14.645883427367494, -71.62505387635254 14.443570666536862, -72.10487223676797 14.007812326905697 M-71.17951620850187 14.848196188198125 C-71.46093909046195 14.592615372843412, -71.74236197242202 14.337034557488696, -72.10487223676797 14.007812326905697 M-72.10487223676797 14.007812326905697 C-72.33487449999217 13.770316106589721, -72.56487676321636 13.532819886273746, -72.97448344296865 13.109867360095677 M-72.10487223676797 14.007812326905697 C-72.32803330583518 13.777380201229294, -72.5511943749024 13.546948075552889, -72.97448344296865 13.109867360095677 M-72.97448344296865 13.109867360095677 C-73.29108407500419 12.73797024262042, -73.60768470703974 12.366073125145164, -73.78477640812658 12.158051136245307 M-72.97448344296865 13.109867360095677 C-73.2311414674755 12.808382240254625, -73.48779949198233 12.506897120413575, -73.78477640812658 12.158051136245307 M-73.78477640812658 12.158051136245307 C-74.06811608479863 11.77840178228031, -74.3514557614707 11.398752428315312, -74.53242146464063 11.156274872382316 M-73.78477640812658 12.158051136245307 C-74.00232553811666 11.86655512119204, -74.21987466810677 11.575059106138774, -74.53242146464063 11.156274872382316 M-74.53242146464063 11.156274872382316 C-74.6958987430165 10.905129873001194, -74.85937602139236 10.653984873620074, -75.21434637860425 10.108655082055249 M-74.53242146464063 11.156274872382316 C-74.78277049622734 10.771671531737327, -75.03311952781405 10.38706819109234, -75.21434637860425 10.108655082055249 M-75.21434637860425 10.108655082055249 C-75.45172951177862 9.687157291455357, -75.689112644953 9.265659500855465, -75.8277489742735 9.019496659696289 M-75.21434637860425 10.108655082055249 C-75.36658079601997 9.838347458527263, -75.51881521343572 9.568039834999276, -75.8277489742735 9.019496659696289 M-75.8277489742735 9.019496659696289 C-75.96795474424526 8.728356378427023, -76.10816051421703 8.437216097157757, -76.37010864880834 7.893275190886686 M-75.8277489742735 9.019496659696289 C-75.99492716975276 8.672347559743274, -76.162105365232 8.325198459790261, -76.37010864880834 7.893275190886686 M-76.37010864880834 7.893275190886686 C-76.50182807151698 7.567925670174549, -76.63354749422562 7.242576149462414, -76.83919672997033 6.73461856121551 M-76.37010864880834 7.893275190886686 C-76.51858876635006 7.5265264298908505, -76.66706888389179 7.159777668895014, -76.83919672997033 6.73461856121551 M-76.83919672997033 6.73461856121551 C-76.92830580089625 6.4662362371890145, -77.01741487182217 6.19785391316252, -77.23308563421489 5.5482879393051325 M-76.83919672997033 6.73461856121551 C-76.94293667925321 6.422170362691744, -77.04667662853609 6.1097221641679775, -77.23308563421489 5.5482879393051325 M-77.23308563421489 5.5482879393051325 C-77.31928197373841 5.219583938972058, -77.40547831326194 4.890879938638984, -77.55015678754556 4.339158212148136 M-77.23308563421489 5.5482879393051325 C-77.35540836717087 5.08181834353614, -77.47773110012686 4.615348747767148, -77.55015678754556 4.339158212148136 M-77.55015678754556 4.339158212148136 C-77.62443885841502 3.957735477754692, -77.69872092928448 3.5763127433612474, -77.78910727658177 3.112197953150904 M-77.55015678754556 4.339158212148136 C-77.6073099633332 4.045688733806615, -77.66446313912083 3.7522192554650933, -77.78910727658177 3.112197953150904 M-77.78910727658177 3.112197953150904 C-77.82438176503175 2.83861598646853, -77.85965625348173 2.565034019786155, -77.94895520250937 1.872449005199809 M-77.78910727658177 3.112197953150904 C-77.82275919970554 2.851200282726773, -77.85641112282933 2.590202612302642, -77.94895520250937 1.872449005199809 M-77.94895520250937 1.872449005199809 C-77.97693965283123 1.4365686027950098, -78.0049241031531 1.0006882003902102, -78.02904371591342 0.6250057626472781 M-77.94895520250937 1.872449005199809 C-77.96713961838219 1.5892120497843858, -77.985324034255 1.3059750943689625, -78.02904371591342 0.6250057626472781 M-78.02904371591342 0.6250057626472781 C-78.02904371591342 0.1659972492356202, -78.02904371591342 -0.29301126417603773, -78.02904371591342 -0.6250057626472687 M-78.02904371591342 0.6250057626472781 C-78.02904371591342 0.3281564535776727, -78.02904371591342 0.031307144508067264, -78.02904371591342 -0.6250057626472687 M-78.02904371591342 -0.6250057626472687 C-77.99714103462092 -1.1219157751586155, -77.96523835332844 -1.6188257876699623, -77.94895520250937 -1.8724490051997822 M-78.02904371591342 -0.6250057626472687 C-78.00873359377081 -0.9413523090537658, -77.98842347162822 -1.2576988554602628, -77.94895520250937 -1.8724490051997822 M-77.94895520250937 -1.8724490051997822 C-77.89318785210602 -2.304969562419133, -77.8374205017027 -2.7374901196384833, -77.78910727658177 -3.112197953150895 M-77.94895520250937 -1.8724490051997822 C-77.91221584931273 -2.1573921735869974, -77.8754764961161 -2.4423353419742124, -77.78910727658177 -3.112197953150895 M-77.78910727658177 -3.112197953150895 C-77.69855196515164 -3.5771803384728043, -77.6079966537215 -4.042162723794713, -77.55015678754556 -4.339158212148126 M-77.78910727658177 -3.112197953150895 C-77.72503311246656 -3.441205243803103, -77.66095894835136 -3.7702125344553115, -77.55015678754556 -4.339158212148126 M-77.55015678754556 -4.339158212148126 C-77.43134566052277 -4.79223653255424, -77.31253453349997 -5.2453148529603535, -77.23308563421489 -5.548287939305123 M-77.55015678754556 -4.339158212148126 C-77.47222897579026 -4.6363307324983465, -77.39430116403496 -4.933503252848567, -77.23308563421489 -5.548287939305123 M-77.23308563421489 -5.548287939305123 C-77.11461693965346 -5.9050967719009915, -76.99614824509203 -6.261905604496861, -76.83919672997033 -6.734618561215485 M-77.23308563421489 -5.548287939305123 C-77.11387815888895 -5.907321861854955, -76.99467068356302 -6.266355784404787, -76.83919672997033 -6.734618561215485 M-76.83919672997033 -6.734618561215485 C-76.72372531532724 -7.019835187871834, -76.60825390068416 -7.305051814528183, -76.37010864880834 -7.893275190886676 M-76.83919672997033 -6.734618561215485 C-76.72788150559141 -7.009569317564855, -76.6165662812125 -7.2845200739142255, -76.37010864880834 -7.893275190886676 M-76.37010864880834 -7.893275190886676 C-76.23148712232566 -8.18112575665348, -76.09286559584298 -8.468976322420282, -75.8277489742735 -9.019496659696282 M-76.37010864880834 -7.893275190886676 C-76.24254443175897 -8.1581650170267, -76.11498021470959 -8.423054843166724, -75.8277489742735 -9.019496659696282 M-75.8277489742735 -9.019496659696282 C-75.60757953335715 -9.41042979661671, -75.38741009244079 -9.801362933537137, -75.21434637860425 -10.108655082055243 M-75.8277489742735 -9.019496659696282 C-75.62226398987193 -9.384356057112264, -75.41677900547033 -9.749215454528244, -75.21434637860425 -10.108655082055243 M-75.21434637860425 -10.108655082055243 C-75.00251014974059 -10.434092415582064, -74.79067392087693 -10.759529749108886, -74.53242146464063 -11.156274872382308 M-75.21434637860425 -10.108655082055243 C-74.95867349722133 -10.501437285641046, -74.70300061583842 -10.894219489226849, -74.53242146464063 -11.156274872382308 M-74.53242146464063 -11.156274872382308 C-74.36202339816725 -11.384592757873445, -74.19162533169386 -11.612910643364582, -73.78477640812659 -12.158051136245302 M-74.53242146464063 -11.156274872382308 C-74.32292600663143 -11.436979700685798, -74.11343054862222 -11.717684528989288, -73.78477640812659 -12.158051136245302 M-73.78477640812659 -12.158051136245302 C-73.60451289280925 -12.369798918621647, -73.4242493774919 -12.581546700997993, -72.97448344296866 -13.10986736009567 M-73.78477640812659 -12.158051136245302 C-73.55744518732362 -12.425087323713383, -73.33011396652064 -12.692123511181462, -72.97448344296866 -13.10986736009567 M-72.97448344296866 -13.10986736009567 C-72.74307309807834 -13.34881754033758, -72.511662753188 -13.58776772057949, -72.10487223676799 -14.007812326905677 M-72.97448344296866 -13.10986736009567 C-72.73732160426371 -13.354756429907605, -72.50015976555876 -13.599645499719538, -72.10487223676799 -14.007812326905677 M-72.10487223676799 -14.007812326905677 C-71.75667891171615 -14.324032292027216, -71.40848558666433 -14.640252257148754, -71.1795162085019 -14.848196188198107 M-72.10487223676799 -14.007812326905677 C-71.7480102571163 -14.331904934774766, -71.39114827746462 -14.655997542643854, -71.1795162085019 -14.848196188198107 M-71.1795162085019 -14.848196188198107 C-70.83692957323217 -15.121399913212478, -70.49434293796243 -15.394603638226847, -70.20221784457871 -15.627565626425149 M-71.1795162085019 -14.848196188198107 C-70.94686573354403 -15.033728750887853, -70.71421525858617 -15.2192613135776, -70.20221784457871 -15.627565626425149 M-70.20221784457871 -15.627565626425149 C-69.87936464340784 -15.852774043472131, -69.55651144223697 -16.077982460519113, -69.17699307360571 -16.342718045390885 M-70.20221784457871 -15.627565626425149 C-69.83187919289233 -15.885897838139725, -69.46154054120595 -16.1442300498543, -69.17699307360571 -16.342718045390885 M-69.17699307360571 -16.342718045390885 C-68.9161159932239 -16.500863264602234, -68.6552389128421 -16.65900848381358, -68.10805476407678 -16.99071473040609 M-69.17699307360571 -16.342718045390885 C-68.77809997847108 -16.58452938381752, -68.37920688333645 -16.826340722244158, -68.10805476407678 -16.99071473040609 M-68.10805476407678 -16.99071473040609 C-67.7425607440925 -17.1813927265218, -67.37706672410822 -17.37207072263751, -66.9997954127924 -17.56889292409717 M-68.10805476407678 -16.99071473040609 C-67.85387742403331 -17.123318885898414, -67.59970008398984 -17.255923041390737, -66.9997954127924 -17.56889292409717 M-66.9997954127924 -17.56889292409717 C-66.57872256968838 -17.75528938105722, -66.15764972658437 -17.94168583801727, -65.85676909514781 -18.07487676824742 M-66.9997954127924 -17.56889292409717 C-66.5878304140158 -17.751257608548073, -66.17586541523922 -17.933622292998976, -65.85676909514781 -18.07487676824742 M-65.85676909514781 -18.07487676824742 C-65.41240885274621 -18.238405445072264, -64.96804861034461 -18.401934121897103, -64.68367275146062 -18.506587066708033 M-65.85676909514781 -18.07487676824742 C-65.5130795775887 -18.20135768774025, -65.16939006002958 -18.327838607233076, -64.68367275146062 -18.506587066708033 M-64.68367275146062 -18.506587066708033 C-64.4329698922137 -18.580994359366354, -64.18226703296679 -18.655401652024675, -63.48532688623541 -18.862249829261067 M-64.68367275146062 -18.506587066708033 C-64.31438910508194 -18.616188514543808, -63.94510545870327 -18.725789962379583, -63.48532688623541 -18.862249829261067 M-63.48532688623541 -18.862249829261067 C-63.00769452486108 -18.971266298902318, -62.53006216348675 -19.080282768543565, -62.266655759676766 -19.140403561325773 M-63.48532688623541 -18.862249829261067 C-63.1918736937823 -18.929228605477448, -62.89842050132918 -18.99620738169383, -62.266655759676766 -19.140403561325773 M-62.266655759676766 -19.140403561325773 C-61.7902653755416 -19.21742266417014, -61.313874991406436 -19.294441767014508, -61.03266715284788 -19.3399052695533 M-62.266655759676766 -19.140403561325773 C-61.810170178339796 -19.21420461001778, -61.35368459700283 -19.288005658709785, -61.03266715284788 -19.3399052695533 M-61.03266715284788 -19.3399052695533 C-60.60460081159133 -19.381200314669222, -60.176534470334786 -19.42249535978514, -59.7884317896239 -19.45993515863156 M-61.03266715284788 -19.3399052695533 C-60.70970729880918 -19.37106081825636, -60.38674744477047 -19.402216366959422, -59.7884317896239 -19.45993515863156 M-59.7884317896239 -19.45993515863156 C-59.47198178391612 -19.470083094382037, -59.15553177820834 -19.480231030132515, -58.53906250000001 -19.5 M-59.7884317896239 -19.45993515863156 C-59.339702472498175 -19.47432503443315, -58.89097315537245 -19.488714910234744, -58.53906250000001 -19.5 M-58.53906250000001 -19.5 C-58.53906250000001 -19.5, -58.5390625 -19.5, -58.5390625 -19.5 M-58.53906250000001 -19.5 C-58.53906250000001 -19.5, -58.53906250000001 -19.5, -58.5390625 -19.5" stroke="#9370DB" stroke-width="1.3" fill="none" stroke-dasharray="0 0" style=""/></g><g class="label" style="" transform="translate(-65.6640625, -12)"><rect/><foreignObject width="131.328125" height="24"><div xmlns="http://www.w3.org/1999/xhtml" style="display: table-cell; white-space: nowrap; line-height: 1.5; max-width: 200px; text-align: center;"><span class="nodeLabel"><p>POST /v1/respond</p></span></div></foreignObject></g></g><g class="node default" id="my-svg-flowchart-EMBED-1" data-look="classic" transform="translate(316.12109375, 148)"><rect class="basic label-container" style="" x="-130" y="-51" width="260" height="102"/><g class="label" style="" transform="translate(-100, -36)"><rect/><foreignObject width="200" height="72"><div xmlns="http://www.w3.org/1999/xhtml" style="display: table; white-space: break-spaces; line-height: 1.5; max-width: 200px; text-align: center; width: 200px;"><span class="nodeLabel"><p>embed user text<br />BGE-small-en-v1.5 → 384-dim vector</p></span></div></foreignObject></g></g><g class="node default" id="my-svg-flowchart-CLASSIFY-3" data-look="classic" transform="translate(475.625, 312)"><rect class="basic label-container" style="" x="-122.546875" y="-63" width="245.09375" height="126"/><g class="label" style="" transform="translate(-92.546875, -48)"><rect/><foreignObject width="185.09375" height="96"><div xmlns="http://www.w3.org/1999/xhtml" style="display: table-cell; white-space: nowrap; line-height: 1.5; max-width: 200px; text-align: center;"><span class="nodeLabel"><p>classify(emb)<br />cos similarity to centroids<br />diff &gt; 0 → INTERESSANT<br />diff ≤ 0 → FUTILE</p></span></div></foreignObject></g></g><g class="node default" id="my-svg-flowchart-SCORE_EMOTION-5" data-look="classic" transform="translate(152.7421875, 973.4296875)"><rect class="basic label-container" style="" x="-130" y="-75" width="260" height="150"/><g class="label" style="" transform="translate(-100, -60)"><rect/><foreignObject width="200" height="120"><div xmlns="http://www.w3.org/1999/xhtml" style="display: table; white-space: break-spaces; line-height: 1.5; max-width: 200px; text-align: center; width: 200px;"><span class="nodeLabel"><p>score emotion(emb)<br />cos(pos) − cos(neg) → valence<br />cos(high) − cos(low) → arousal</p></span></div></foreignObject></g></g><g class="node default" id="my-svg-flowchart-LABEL-7" data-look="classic" transform="translate(475.625, 475.578125)"><polygon points="50.578125,0 101.15625,-50.578125 50.578125,-101.15625 0,-50.578125" class="label-container" transform="translate(-50.078125, 50.578125)"/><g class="label" style="" transform="translate(-23.578125, -12)"><rect/><foreignObject width="47.15625" height="24"><div xmlns="http://www.w3.org/1999/xhtml" style="display: table-cell; white-space: nowrap; line-height: 1.5; max-width: 200px; text-align: center;"><span class="nodeLabel"><p>label ?</p></span></div></foreignObject></g></g><g class="node default" id="my-svg-flowchart-BACKEND-9" data-look="classic" transform="translate(715.54296875, 651.15625)"><rect class="basic label-container" style="" x="-130" y="-51" width="260" height="102"/><g class="label" style="" transform="translate(-100, -36)"><rect/><foreignObject width="200" height="72"><div xmlns="http://www.w3.org/1999/xhtml" style="display: table; white-space: break-spaces; line-height: 1.5; max-width: 200px; text-align: center; width: 200px;"><span class="nodeLabel"><p>backend = KRYSTAL_GENERIC_URL (:3124)</p></span></div></foreignObject></g></g><g class="node default" id="my-svg-flowchart-BACKEND2-11" data-look="classic" transform="translate(399.45703125, 651.15625)"><rect class="basic label-container" style="" x="-133.8828125" y="-51" width="267.765625" height="102"/><g class="label" style="" transform="translate(-103.8828125, -36)"><rect/><foreignObject width="207.765625" height="72"><div xmlns="http://www.w3.org/1999/xhtml" style="display: table; white-space: break-spaces; line-height: 1.5; max-width: 200px; text-align: center; width: 200px;"><span class="nodeLabel"><p>backend = KRYSTAL_SEMANTIC_URL (:3125)</p></span></div></foreignObject></g></g><g class="node default" id="my-svg-flowchart-UPDATE_EMA-13" data-look="classic" transform="translate(152.7421875, 1215.703125)"><rect class="basic label-container" style="" x="-144.7421875" y="-75" width="289.484375" height="150"/><g class="label" style="" transform="translate(-114.7421875, -60)"><rect/><foreignObject width="229.484375" height="120"><div xmlns="http://www.w3.org/1999/xhtml" style="display: table; white-space: break-spaces; line-height: 1.5; max-width: 200px; text-align: center; width: 200px;"><span class="nodeLabel"><p>emotionState.update(sessionId, valence, arousal)<br />ema = prev × 0.85 + delta × 0.15<br />deadzone: 0.005</p></span></div></foreignObject></g></g><g class="node default" id="my-svg-flowchart-EMOTION_STATE-15" data-look="classic" transform="translate(152.7421875, 1391.703125)"><rect class="basic label-container" style="" x="-130" y="-39" width="260" height="78"/><g class="label" style="" transform="translate(-100, -24)"><rect/><foreignObject width="200" height="48"><div xmlns="http://www.w3.org/1999/xhtml" style="display: table; white-space: break-spaces; line-height: 1.5; max-width: 200px; text-align: center; width: 200px;"><span class="nodeLabel"><p>current emotion: valence, arousal</p></span></div></foreignObject></g></g><g class="node default" id="my-svg-flowchart-APPEND_SESSION-17" data-look="classic" transform="translate(475.625, 791.15625)"><rect class="basic label-container" style="" x="-154.515625" y="-39" width="309.03125" height="78"/><g class="label" style="" transform="translate(-124.515625, -24)"><rect/><foreignObject width="249.03125" height="48"><div xmlns="http://www.w3.org/1999/xhtml" style="display: table; white-space: break-spaces; line-height: 1.5; max-width: 200px; text-align: center; width: 200px;"><span class="nodeLabel"><p>sessionStore.appendUserMessage<br />(username + text)</p></span></div></foreignObject></g></g><g class="node default" id="my-svg-flowchart-FEW_SHOT-21" data-look="classic" transform="translate(475.625, 973.4296875)"><polygon points="93.2734375,0 186.546875,-93.2734375 93.2734375,-186.546875 0,-93.2734375" class="label-container" transform="translate(-92.7734375, 93.2734375)"/><g class="label" style="" transform="translate(-66.2734375, -12)"><rect/><foreignObject width="132.546875" height="24"><div xmlns="http://www.w3.org/1999/xhtml" style="display: table-cell; white-space: nowrap; line-height: 1.5; max-width: 200px; text-align: center;"><span class="nodeLabel"><p>fewShot enabled ?</p></span></div></foreignObject></g></g><g class="node default" id="my-svg-flowchart-INJECT-23" data-look="classic" transform="translate(471.75, 1215.703125)"><rect class="basic label-container" style="" x="-124.265625" y="-39" width="248.53125" height="78"/><g class="label" style="" transform="translate(-94.265625, -24)"><rect/><foreignObject width="188.53125" height="48"><div xmlns="http://www.w3.org/1999/xhtml" style="display: table-cell; white-space: nowrap; line-height: 1.5; max-width: 200px; text-align: center;"><span class="nodeLabel"><p>inject 5 few-shot examples<br />after system prompt</p></span></div></foreignObject></g></g><g class="node default" id="my-svg-flowchart-COMPUTE_SLOT-25" data-look="classic" transform="translate(475.625, 1391.703125)"><rect class="basic label-container" style="" x="-130" y="-51" width="260" height="102"/><g class="label" style="" transform="translate(-100, -36)"><rect/><foreignObject width="200" height="72"><div xmlns="http://www.w3.org/1999/xhtml" style="display: table; white-space: break-spaces; line-height: 1.5; max-width: 200px; text-align: center; width: 200px;"><span class="nodeLabel"><p>slot = hashCode(sessionId) % nSlots<br />(Java-style 32-bit hash)</p></span></div></foreignObject></g></g><g class="node default" id="my-svg-flowchart-SAMPLING_PARAMS-29" data-look="classic" transform="translate(316.12109375, 1519.703125)"><rect class="basic label-container" style="" x="-108.984375" y="-27" width="217.96875" height="54"/><g class="label" style="" transform="translate(-78.984375, -12)"><rect/><foreignObject width="157.96875" height="24"><div xmlns="http://www.w3.org/1999/xhtml" style="display: table-cell; white-space: nowrap; line-height: 1.5; max-width: 200px; text-align: center;"><span class="nodeLabel"><p>SAMPLING_PARAMS</p></span></div></foreignObject></g></g><g class="node default" id="my-svg-flowchart-COMPUTE_PARAMS-33" data-look="classic" transform="translate(316.12109375, 1683.703125)"><rect class="basic label-container" style="" x="-130" y="-87" width="260" height="174"/><g class="label" style="" transform="translate(-100, -72)"><rect/><foreignObject width="200" height="144"><div xmlns="http://www.w3.org/1999/xhtml" style="display: table; white-space: break-spaces; line-height: 1.5; max-width: 200px; text-align: center; width: 200px;"><span class="nodeLabel"><p>temperature = 0.7 + arousal×0.3 [0.4,1.0]<br />repeat_penalty = 1.15 − valence×0.1 [1.0,1.3]<br />mirostat: mode=2, LR=0.1, ent=5.0+arousal×2</p></span></div></foreignObject></g></g><g class="node default" id="my-svg-flowchart-CALL_KRYSTAL-35" data-look="classic" transform="translate(316.12109375, 1883.703125)"><rect class="basic label-container" style="" x="-138.515625" y="-63" width="277.03125" height="126"/><g class="label" style="" transform="translate(-108.515625, -48)"><rect/><foreignObject width="217.03125" height="96"><div xmlns="http://www.w3.org/1999/xhtml" style="display: table; white-space: break-spaces; line-height: 1.5; max-width: 200px; text-align: center; width: 200px;"><span class="nodeLabel"><p>POST {backend}/v1/chat/completions<br />messages + slot + params + max_tokens:2000</p></span></div></foreignObject></g></g><g class="node default" id="my-svg-flowchart-DEGENERATE-37" data-look="classic" transform="translate(443.4921875, 2099.3046875)"><polygon points="102.6015625,0 205.203125,-102.6015625 102.6015625,-205.203125 0,-102.6015625" class="label-container" transform="translate(-102.1015625, 102.6015625)"/><g class="label" style="" transform="translate(-75.6015625, -12)"><rect/><foreignObject width="151.203125" height="24"><div xmlns="http://www.w3.org/1999/xhtml" style="display: table-cell; white-space: nowrap; line-height: 1.5; max-width: 200px; text-align: center;"><span class="nodeLabel"><p>is_degenerate(text) ?</p></span></div></foreignObject></g></g><g class="node default" id="my-svg-flowchart-TRUNCATE-39" data-look="classic" transform="translate(529.02734375, 2430.90625)"><rect class="basic label-container" style="" x="-98.4765625" y="-51" width="196.953125" height="102"/><g class="label" style="" transform="translate(-68.4765625, -36)"><rect/><foreignObject width="136.953125" height="72"><div xmlns="http://www.w3.org/1999/xhtml" style="display: table-cell; white-space: nowrap; line-height: 1.5; max-width: 200px; text-align: center;"><span class="nodeLabel"><p>truncateUserLeak()<br />strip after '<br />User:'</p></span></div></foreignObject></g></g><g class="node default" id="my-svg-flowchart-RETRY-41" data-look="classic" transform="translate(188.75, 2302.90625)"><rect class="basic label-container" style="" x="-82.6875" y="-27" width="165.375" height="54"/><g class="label" style="" transform="translate(-52.6875, -12)"><rect/><foreignObject width="105.375" height="24"><div xmlns="http://www.w3.org/1999/xhtml" style="display: table-cell; white-space: nowrap; line-height: 1.5; max-width: 200px; text-align: center;"><span class="nodeLabel"><p>retry (up to 3×)</p></span></div></foreignObject></g></g><g class="node default" id="my-svg-flowchart-USE_ANYWAY-45" data-look="classic" transform="translate(446.05078125, 2302.90625)"><rect class="basic label-container" style="" x="-122.0546875" y="-27" width="244.109375" height="54"/><g class="label" style="" transform="translate(-92.0546875, -12)"><rect/><foreignObject width="184.109375" height="24"><div xmlns="http://www.w3.org/1999/xhtml" style="display: table-cell; white-space: nowrap; line-height: 1.5; max-width: 200px; text-align: center;"><span class="nodeLabel"><p>use last response anyway</p></span></div></foreignObject></g></g><g class="node default" id="my-svg-flowchart-SAVE_SESSION-49" data-look="classic" transform="translate(529.02734375, 2570.90625)"><rect class="basic label-container" style="" x="-170.0859375" y="-39" width="340.171875" height="78"/><g class="label" style="" transform="translate(-140.0859375, -24)"><rect/><foreignObject width="280.171875" height="48"><div xmlns="http://www.w3.org/1999/xhtml" style="display: table; white-space: break-spaces; line-height: 1.5; max-width: 200px; text-align: center; width: 200px;"><span class="nodeLabel"><p>sessionStore.appendAssistantMessage<br />+ cleanupStale()</p></span></div></foreignObject></g></g><g class="node default" id="my-svg-flowchart-RESPOND-51" data-look="classic" transform="translate(529.02734375, 2722.90625)"><rect class="basic label-container" style="" x="-130" y="-63" width="260" height="126"/><g class="label" style="" transform="translate(-100, -48)"><rect/><foreignObject width="200" height="96"><div xmlns="http://www.w3.org/1999/xhtml" style="display: table; white-space: break-spaces; line-height: 1.5; max-width: 200px; text-align: center; width: 200px;"><span class="nodeLabel"><p>RespondResult{text, debug, label,<br />valence, arousal, tokens, timing, ...}</p></span></div></foreignObject></g></g></g></g></g><defs><filter id="my-svg-drop-shadow" height="130%" width="130%"><feDropShadow dx="4" dy="4" stdDeviation="0" flood-opacity="0.06" flood-color="#000000"/></filter></defs><defs><filter id="my-svg-drop-shadow-small" height="150%" width="150%"><feDropShadow dx="2" dy="2" stdDeviation="0" flood-opacity="0.06" flood-color="#000000"/></filter></defs></svg>